<?xml version="1.0" standalone="no"?>
<!DOCTYPE svg PUBLIC "-//W3C//DTD SVG 20010904//EN"
 "http://www.w3.org/TR/2001/REC-SVG-20010904/DTD/svg10.dtd">
<svg version="1.0" xmlns="http://www.w3.org/2000/svg"
 width="1280.000000pt" height="1002.000000pt" viewBox="0 0 1280.000000 1002.000000"
 preserveAspectRatio="xMidYMid meet">
<metadata>
Created by potrace 1.16, written by Peter Selinger 2001-2019
</metadata>
<g transform="translate(0.000000,1002.000000) scale(0.100000,-0.100000)"
fill="#000000" stroke="none">
<path d="M4270 9422 c8 -5 35 -12 60 -15 54 -7 24 7 -35 17 -25 4 -34 3 -25
-2z"/>
<path d="M4205 9400 c-28 -7 -27 -8 13 -9 27 -1 41 3 37 9 -7 11 -7 11 -50 0z"/>
<path d="M4400 9374 c0 -5 11 -26 25 -46 14 -20 25 -42 25 -47 0 -6 4 -11 10
-11 5 0 6 8 3 18 -9 23 -63 97 -63 86z"/>
<path d="M4136 9357 c3 -10 9 -15 12 -12 3 3 0 11 -7 18 -10 9 -11 8 -5 -6z"/>
<path d="M4089 9318 c-17 -24 -18 -29 -6 -19 18 14 42 51 33 51 -3 0 -15 -15
-27 -32z"/>
<path d="M4410 9290 c0 -5 5 -10 10 -10 6 0 10 5 10 10 0 6 -4 10 -10 10 -5 0
-10 -4 -10 -10z"/>
<path d="M4041 9250 c-12 -17 -17 -30 -12 -30 10 0 45 50 39 56 -3 2 -14 -10
-27 -26z"/>
<path d="M4067 9243 c-4 -3 -7 -11 -7 -17 0 -6 5 -5 12 2 6 6 9 14 7 17 -3 3
-9 2 -12 -2z"/>
<path d="M4489 9244 c-4 -36 -6 -77 -2 -67 4 10 8 9 19 -1 8 -8 14 -19 14 -25
0 -6 4 -11 10 -11 5 0 7 7 4 15 -4 8 -1 15 6 15 10 0 10 3 0 15 -7 8 -17 12
-22 9 -6 -4 -14 0 -19 7 -14 23 -10 32 9 18 16 -13 16 -13 2 6 -8 11 -16 22
-17 24 -2 2 -3 0 -4 -5z"/>
<path d="M4015 9200 c-3 -5 -1 -10 4 -10 6 0 11 5 11 10 0 6 -2 10 -4 10 -3 0
-8 -4 -11 -10z"/>
<path d="M3971 9147 c-13 -21 -12 -21 5 -5 10 10 16 20 13 22 -3 3 -11 -5 -18
-17z"/>
<path d="M4557 9141 c3 -11 16 -30 30 -43 l26 -23 -28 43 c-31 47 -35 51 -28
23z"/>
<path d="M3918 9072 c-19 -26 -41 -58 -47 -72 l-12 -25 20 25 c11 14 21 29 21
33 0 5 4 6 9 3 5 -3 8 2 7 12 -1 12 5 16 23 14 24 -2 41 12 41 33 -1 6 -7 1
-15 -9 -8 -11 -18 -17 -21 -13 -4 4 -1 13 6 22 7 9 11 18 8 20 -2 3 -20 -17
-40 -43z"/>
<path d="M4570 9082 c0 -12 19 -26 26 -19 2 2 -2 10 -11 17 -9 8 -15 8 -15 2z"/>
<path d="M4650 9011 c5 -11 15 -23 21 -27 6 -3 3 5 -6 20 -20 30 -30 35 -15 7z"/>
<path d="M3897 8996 c-4 -10 -1 -13 8 -9 8 3 12 9 9 14 -7 12 -11 11 -17 -5z"/>
<path d="M4635 8980 c3 -5 8 -10 11 -10 2 0 4 5 4 10 0 6 -5 10 -11 10 -5 0
-7 -4 -4 -10z"/>
<path d="M4680 8961 c0 -5 7 -15 17 -22 15 -13 15 -12 4 9 -12 23 -21 28 -21
13z"/>
<path d="M3817 8927 c-14 -29 -15 -38 -2 -87 8 -34 14 -45 14 -29 1 14 -4 40
-10 57 -8 25 -7 35 7 57 9 14 15 28 12 30 -2 2 -11 -10 -21 -28z"/>
<path d="M4650 8950 c0 -5 5 -10 11 -10 5 0 7 5 4 10 -3 6 -8 10 -11 10 -2 0
-4 -4 -4 -10z"/>
<path d="M4685 8910 c3 -5 8 -10 11 -10 2 0 4 5 4 10 0 6 -5 10 -11 10 -5 0
-7 -4 -4 -10z"/>
<path d="M4716 8911 c-3 -5 1 -11 9 -14 9 -4 12 -1 8 9 -6 16 -10 17 -17 5z"/>
<path d="M4737 8866 c-5 -11 -3 -15 4 -10 7 4 10 1 7 -7 -3 -8 -11 -13 -17
-11 -7 1 -10 -2 -6 -8 5 -8 11 -8 19 -1 9 7 16 7 24 -1 9 -9 12 -8 12 7 0 10
-3 15 -7 11 -4 -3 -12 3 -18 15 -11 19 -13 19 -18 5z"/>
<path d="M4804 8772 c4 -40 8 -44 22 -28 9 10 7 19 -7 37 l-19 24 4 -33z"/>
<path d="M3831 8724 c0 -11 3 -14 6 -6 3 7 2 16 -1 19 -3 4 -6 -2 -5 -13z"/>
<path d="M4840 8723 c0 -12 5 -25 11 -28 19 -12 22 3 5 27 l-16 22 0 -21z"/>
<path d="M4805 8679 c-4 -6 -5 -12 -2 -15 2 -3 7 2 10 11 7 17 1 20 -8 4z"/>
<path d="M4876 8675 c-3 -9 -2 -13 3 -10 5 3 11 -5 13 -17 2 -17 5 -19 9 -8 4
9 1 24 -6 33 -11 16 -13 16 -19 2z"/>
<path d="M4906 8614 c-5 -14 -4 -15 9 -4 17 14 19 20 6 20 -5 0 -12 -7 -15
-16z"/>
<path d="M4926 8595 c-3 -8 -1 -15 4 -15 6 0 10 7 10 15 0 8 -2 15 -4 15 -2 0
-6 -7 -10 -15z"/>
<path d="M4973 8537 c0 -16 4 -24 10 -20 7 4 8 -1 3 -13 -5 -14 -4 -16 4 -8 9
9 8 19 -3 40 l-14 28 0 -27z"/>
<path d="M3658 8533 c34 -2 90 -2 125 0 34 2 6 3 -63 3 -69 0 -97 -1 -62 -3z"/>
<path d="M3537 8523 c-4 -3 -7 -11 -7 -17 0 -6 5 -5 12 2 6 6 9 14 7 17 -3 3
-9 2 -12 -2z"/>
<path d="M3587 8515 c18 -12 47 -15 140 -12 l118 3 -122 2 c-68 1 -125 6 -128
12 -3 6 -11 10 -18 10 -6 0 -2 -7 10 -15z"/>
<path d="M5010 8489 c0 -8 9 -23 21 -32 11 -10 19 -24 16 -30 -3 -7 3 -13 13
-13 15 0 13 7 -13 41 -17 22 -32 42 -34 44 -2 2 -3 -2 -3 -10z"/>
<path d="M3505 8455 c0 -13 3 -21 8 -18 4 2 7 10 7 18 0 8 -3 16 -7 18 -5 3
-8 -5 -8 -18z"/>
<path d="M4980 8473 c1 -17 39 -57 47 -50 4 5 0 14 -10 21 -9 7 -17 18 -17 25
0 6 -4 11 -10 11 -5 0 -10 -3 -10 -7z"/>
<path d="M3470 8430 c-7 -14 -27 -43 -44 -65 -17 -21 -25 -35 -17 -31 10 7 12
3 6 -15 -7 -23 -7 -23 8 -4 8 11 13 23 11 27 -3 4 9 26 27 47 17 22 29 45 27
53 -3 8 -9 4 -18 -12z"/>
<path d="M3490 8401 c0 -10 8 -22 18 -26 13 -5 14 -3 5 6 -6 6 -9 18 -6 25 3
8 0 14 -6 14 -6 0 -11 -9 -11 -19z"/>
<path d="M5062 8388 c2 -5 8 -9 13 -9 5 0 11 4 13 9 1 5 -4 9 -13 9 -9 0 -14
-4 -13 -9z"/>
<path d="M5047 8357 c-3 -8 1 -14 8 -14 7 0 11 6 8 14 -3 7 -6 13 -8 13 -2 0
-5 -6 -8 -13z"/>
<path d="M3372 8290 c-12 -16 -22 -33 -22 -38 0 -4 -9 -18 -20 -30 -11 -11
-16 -23 -11 -26 4 -3 20 17 35 44 15 28 31 48 35 46 4 -3 8 4 8 15 2 25 1 24
-25 -11z"/>
<path d="M5130 8315 c0 -6 6 -17 13 -24 10 -10 8 -15 -8 -28 -20 -15 -20 -15
1 -10 25 5 58 -27 59 -58 0 -11 7 -20 15 -20 22 0 55 -56 39 -65 -7 -5 -2 -7
13 -7 16 1 24 7 21 15 -3 6 -8 12 -12 12 -4 0 -22 25 -40 55 -18 30 -37 55
-42 55 -5 0 -9 7 -9 16 0 8 -4 12 -10 9 -5 -3 -10 0 -10 7 0 17 -29 58 -30 43z
m84 -120 c3 -8 1 -15 -4 -15 -6 0 -10 7 -10 15 0 8 2 15 4 15 2 0 6 -7 10 -15z"/>
<path d="M3413 8275 c-10 -11 -9 -13 6 -12 11 1 17 7 14 14 -6 16 -5 16 -20
-2z"/>
<path d="M9133 8270 c-13 -5 -23 -15 -23 -22 0 -10 3 -9 9 1 5 8 25 15 44 15
19 1 33 4 30 9 -6 9 -32 8 -60 -3z"/>
<path d="M9230 8273 c0 -5 16 -8 35 -9 22 0 31 3 23 8 -16 10 -58 10 -58 1z"/>
<path d="M5127 8223 c-2 -5 4 -16 14 -25 21 -20 37 -5 19 17 -14 16 -27 19
-33 8z"/>
<path d="M9343 8216 c13 -10 15 -16 7 -21 -16 -10 8 -25 26 -18 18 7 -14 52
-36 52 -12 0 -11 -3 3 -13z"/>
<path d="M9111 8204 c0 -11 3 -14 6 -6 3 7 2 16 -1 19 -3 4 -6 -2 -5 -13z"/>
<path d="M3340 8195 c-7 -9 -19 -14 -26 -11 -8 3 -11 0 -8 -8 3 -8 16 -13 30
-12 24 1 35 16 12 16 -9 0 -8 3 2 10 8 5 12 12 9 15 -4 3 -12 -2 -19 -10z"/>
<path d="M9060 8199 c0 -5 5 -7 10 -4 6 3 10 8 10 11 0 2 -4 4 -10 4 -5 0 -10
-5 -10 -11z"/>
<path d="M9305 8200 c-8 -13 -1 -24 14 -19 6 3 7 10 2 18 -6 10 -10 10 -16 1z"/>
<path d="M9282 8146 c2 -15 8 -26 13 -26 15 0 12 43 -3 48 -10 3 -13 -4 -10
-22z"/>
<path d="M3264 8128 c-11 -13 -30 -39 -42 -58 l-23 -35 34 38 c30 33 34 34 30
13 -3 -13 1 -27 7 -31 9 -5 10 -2 6 13 -4 11 -2 23 5 27 8 6 7 10 -2 16 -11 8
-10 12 5 24 11 8 15 15 10 15 -6 0 -19 -10 -30 -22z"/>
<path d="M5220 8130 c0 -5 5 -10 11 -10 5 0 7 5 4 10 -3 6 -8 10 -11 10 -2 0
-4 -4 -4 -10z"/>
<path d="M3320 8120 c0 -5 5 -10 10 -10 6 0 10 5 10 10 0 6 -4 10 -10 10 -5 0
-10 -4 -10 -10z"/>
<path d="M5201 8113 c-1 -16 5 -23 17 -23 10 0 13 3 6 8 -6 4 -14 14 -17 22
-4 10 -6 8 -6 -7z"/>
<path d="M9026 8112 c-2 -4 -1 -14 5 -22 7 -12 9 -10 9 8 0 23 -5 28 -14 14z"/>
<path d="M4918 8093 c7 -3 16 -2 19 1 4 3 -2 6 -13 5 -11 0 -14 -3 -6 -6z"/>
<path d="M4808 8083 c7 -3 16 -2 19 1 4 3 -2 6 -13 5 -11 0 -14 -3 -6 -6z"/>
<path d="M5008 8083 c17 -2 47 -2 65 0 17 2 3 4 -33 4 -36 0 -50 -2 -32 -4z"/>
<path d="M5270 8086 c0 -2 9 -6 20 -9 11 -3 18 -1 14 4 -5 9 -34 13 -34 5z"/>
<path d="M9440 8080 c0 -5 5 -10 11 -10 5 0 7 5 4 10 -3 6 -8 10 -11 10 -2 0
-4 -4 -4 -10z"/>
<path d="M4890 8070 c8 -5 24 -9 35 -9 l20 0 -20 9 c-11 5 -27 9 -35 9 -13 1
-13 0 0 -9z"/>
<path d="M3237 8054 c-4 -4 -7 -14 -7 -23 0 -11 3 -12 11 -4 6 6 10 16 7 23
-2 6 -7 8 -11 4z"/>
<path d="M4800 8050 c0 -5 4 -10 9 -10 6 0 13 5 16 10 3 6 -1 10 -9 10 -9 0
-16 -4 -16 -10z"/>
<path d="M4858 8043 c7 -3 16 -2 19 1 4 3 -2 6 -13 5 -11 0 -14 -3 -6 -6z"/>
<path d="M8940 8035 c-10 -11 -9 -18 4 -30 14 -14 15 -13 13 15 -2 35 -1 34
-17 15z"/>
<path d="M3180 8010 c-8 -15 -7 -25 3 -40 13 -18 14 -16 13 20 0 46 -1 47 -16
20z"/>
<path d="M9448 8023 c7 -3 16 -2 19 1 4 3 -2 6 -13 5 -11 0 -14 -3 -6 -6z"/>
<path d="M4686 8008 c3 -5 16 -13 28 -18 21 -8 21 -8 1 -16 -11 -4 -31 -16
-44 -26 -13 -10 -27 -15 -32 -12 -5 3 -6 -2 -3 -10 5 -14 9 -13 30 2 13 9 24
20 24 25 0 4 4 7 9 7 6 0 26 10 46 21 27 16 33 24 23 30 -7 5 -17 9 -23 9 -5
0 -4 -4 4 -9 10 -7 10 -10 1 -16 -7 -4 -15 -3 -19 2 -8 13 -53 24 -45 11z"/>
<path d="M3145 7959 c-4 -6 -4 -13 -1 -16 3 -4 6 -1 6 6 0 7 5 9 10 6 6 -3 10
-1 10 4 0 14 -17 14 -25 0z"/>
<path d="M4640 7959 c0 -5 5 -7 10 -4 6 3 10 8 10 11 0 2 -4 4 -10 4 -5 0 -10
-5 -10 -11z"/>
<path d="M9440 7961 c0 -6 5 -13 10 -16 6 -3 10 1 10 9 0 9 -4 16 -10 16 -5 0
-10 -4 -10 -9z"/>
<path d="M8866 7924 c-4 -9 -4 -19 -1 -22 2 -3 7 3 11 12 4 9 4 19 1 22 -2 3
-7 -3 -11 -12z"/>
<path d="M9523 7925 c-3 -9 -3 -19 1 -22 3 -4 6 1 6 10 0 8 6 18 13 20 9 4 9
6 -1 6 -7 1 -15 -6 -19 -14z"/>
<path d="M9485 7920 c3 -5 10 -10 16 -10 5 0 9 5 9 10 0 6 -7 10 -16 10 -8 0
-12 -4 -9 -10z"/>
<path d="M4567 7896 c-4 -10 -1 -13 9 -9 15 6 19 23 5 23 -5 0 -11 -7 -14 -14z"/>
<path d="M3086 7874 c-5 -14 -4 -15 9 -4 17 14 19 20 6 20 -5 0 -12 -7 -15
-16z"/>
<path d="M8855 7870 c-3 -5 1 -10 9 -10 9 0 16 5 16 10 0 6 -4 10 -9 10 -6 0
-13 -4 -16 -10z"/>
<path d="M9603 7838 c-1 -18 1 -27 4 -20 4 10 8 10 19 1 20 -16 17 1 -4 29
l-18 23 -1 -33z"/>
<path d="M3062 7838 c-7 -7 -12 -16 -12 -21 0 -5 7 -1 16 8 9 9 14 18 12 20
-2 3 -10 -1 -16 -7z"/>
<path d="M4540 7835 c-20 -24 -6 -28 15 -5 10 11 13 20 8 20 -6 0 -16 -7 -23
-15z"/>
<path d="M3100 7828 c0 -9 5 -20 10 -23 13 -8 13 5 0 25 -8 13 -10 13 -10 -2z"/>
<path d="M3070 7805 c-7 -9 -11 -18 -8 -20 3 -3 11 1 18 10 7 9 11 18 8 20 -3
3 -11 -1 -18 -10z"/>
<path d="M3021 7784 c-6 -15 -10 -29 -7 -31 2 -2 7 5 11 16 3 12 11 19 16 16
5 -3 6 1 3 9 -8 21 -9 20 -23 -10z"/>
<path d="M3090 7775 c0 -8 2 -15 4 -15 2 0 6 7 10 15 3 8 1 15 -4 15 -6 0 -10
-7 -10 -15z"/>
<path d="M4474 7778 c-4 -7 -3 -8 4 -4 19 12 14 -3 -14 -40 -15 -19 -22 -34
-18 -34 5 0 21 18 36 39 22 31 25 40 13 45 -8 3 -17 0 -21 -6z"/>
<path d="M4427 7762 c-10 -11 -14 -23 -9 -26 12 -7 35 19 30 34 -2 7 -11 3
-21 -8z"/>
<path d="M8776 7773 c5 -5 12 -12 16 -18 4 -6 8 -2 8 8 0 9 -7 17 -17 17 -9 0
-12 -3 -7 -7z"/>
<path d="M3034 7755 c-4 -9 6 -28 25 -47 17 -17 31 -28 31 -22 -1 15 -26 44
-39 44 -7 0 -11 6 -8 13 2 6 10 11 16 10 6 -2 11 2 11 7 0 16 -30 12 -36 -5z"/>
<path d="M8750 7751 c0 -5 7 -14 15 -21 16 -14 18 -10 9 14 -6 17 -24 22 -24
7z"/>
<path d="M3103 7698 c0 -26 4 -35 14 -31 15 6 18 23 4 23 -5 0 -12 10 -14 23
-2 12 -4 6 -4 -15z"/>
<path d="M9687 7716 c-7 -19 11 -32 24 -19 6 6 5 14 -4 22 -12 9 -16 8 -20 -3z"/>
<path d="M4410 7700 c0 -5 5 -10 10 -10 6 0 10 5 10 10 0 6 -4 10 -10 10 -5 0
-10 -4 -10 -10z"/>
<path d="M8728 7688 c-8 -13 -18 -31 -21 -42 -4 -11 -13 -16 -22 -12 -8 3 -15
1 -15 -4 0 -6 11 -10 25 -10 18 0 28 7 35 24 5 13 14 27 19 31 13 8 15 35 2
35 -5 0 -15 -10 -23 -22z"/>
<path d="M3182 7686 c7 -8 15 -12 17 -11 5 6 -10 25 -20 25 -5 0 -4 -6 3 -14z"/>
<path d="M3150 7660 c0 -5 5 -10 10 -10 6 0 10 5 10 10 0 6 -4 10 -10 10 -5 0
-10 -4 -10 -10z"/>
<path d="M4422 7658 c-7 -7 -12 -19 -12 -27 0 -11 5 -8 16 7 18 25 15 39 -4
20z"/>
<path d="M3120 7656 c0 -3 14 -22 31 -41 26 -29 34 -32 43 -21 6 8 20 16 31
19 18 4 18 5 -2 6 -12 0 -25 -4 -28 -9 -4 -6 -11 -7 -17 -4 -6 4 -5 10 3 16
11 8 11 9 -1 5 -8 -2 -25 5 -37 16 -13 11 -23 17 -23 13z"/>
<path d="M9711 7634 c0 -11 3 -14 6 -6 3 7 2 16 -1 19 -3 4 -6 -2 -5 -13z"/>
<path d="M9764 7621 c1 -18 5 -27 14 -24 15 6 15 13 -2 35 -12 16 -13 15 -12
-11z"/>
<path d="M3245 7590 c3 -5 8 -10 11 -10 2 0 4 5 4 10 0 6 -5 10 -11 10 -5 0
-7 -4 -4 -10z"/>
<path d="M3215 7560 c20 -22 31 -20 22 5 -4 8 -14 15 -23 15 -16 0 -16 -2 1
-20z"/>
<path d="M3270 7564 c0 -9 -8 -23 -17 -31 -10 -8 -12 -11 -4 -7 9 4 19 0 27
-11 8 -10 17 -15 21 -11 4 4 1 12 -8 16 -11 6 -15 18 -11 35 2 14 2 25 -2 25
-3 0 -6 -7 -6 -16z"/>
<path d="M8610 7561 c0 -5 6 -12 13 -14 9 -4 9 -6 -1 -6 -7 -1 -10 -6 -6 -12
9 -15 24 9 17 28 -6 15 -23 18 -23 4z"/>
<path d="M3330 7536 c0 -2 7 -9 15 -16 12 -10 15 -10 15 4 0 9 -7 16 -15 16
-8 0 -15 -2 -15 -4z"/>
<path d="M4367 7513 c-4 -3 -7 -18 -7 -32 l-1 -26 -14 25 c-18 32 -18 25 -1
-25 13 -37 15 -38 20 -15 2 14 7 37 11 53 5 27 4 32 -8 20z"/>
<path d="M8586 7488 c8 -28 12 -33 20 -25 9 8 -6 47 -17 47 -6 0 -7 -10 -3
-22z"/>
<path d="M8631 7484 c0 -11 3 -14 6 -6 3 7 2 16 -1 19 -3 4 -6 -2 -5 -13z"/>
<path d="M3314 7467 c-8 -9 -3 -20 18 -40 15 -16 28 -24 28 -20 0 5 -9 17 -21
26 -11 10 -18 21 -15 24 3 3 13 0 22 -8 16 -13 16 -12 3 9 -16 25 -20 26 -35
9z"/>
<path d="M9880 7456 c0 -8 4 -17 9 -20 5 -4 7 3 4 14 -6 23 -13 26 -13 6z"/>
<path d="M8530 7454 c0 -3 7 -12 15 -20 16 -17 18 -14 9 10 -6 15 -24 23 -24
10z"/>
<path d="M4332 7405 c0 -16 2 -22 5 -12 2 9 2 23 0 30 -3 6 -5 -1 -5 -18z"/>
<path d="M8512 7418 c-17 -17 -15 -26 9 -39 17 -9 20 -8 14 2 -6 9 -3 11 8 6
22 -8 22 6 -1 26 -14 13 -21 14 -30 5z"/>
<path d="M9924 7385 c-2 -21 1 -24 12 -14 11 9 11 15 3 25 -15 18 -14 18 -15
-11z"/>
<path d="M3380 7377 c0 -2 14 -16 32 -33 30 -28 30 -18 -1 18 -13 16 -31 24
-31 15z"/>
<path d="M4332 7320 c0 -14 2 -19 5 -12 2 6 2 18 0 25 -3 6 -5 1 -5 -13z"/>
<path d="M8440 7314 c0 -2 9 -8 20 -14 11 -6 20 -7 20 -2 0 6 -9 12 -20 15
-11 3 -20 3 -20 1z"/>
<path d="M3505 7290 c-3 -5 -1 -10 4 -10 6 0 11 5 11 10 0 6 -2 10 -4 10 -3 0
-8 -4 -11 -10z"/>
<path d="M8426 7283 c-6 -14 -5 -15 5 -6 7 7 10 15 7 18 -3 3 -9 -2 -12 -12z"/>
<path d="M5108 7273 l733 -3 27 -25 c26 -24 26 -25 5 -23 -27 4 -31 -16 -5
-20 31 -5 35 26 7 54 l-24 24 -738 -2 -738 -3 733 -2z"/>
<path d="M8382 7238 c-7 -9 -6 -17 3 -25 10 -9 13 -7 11 13 -1 28 -1 28 -14
12z"/>
<path d="M10030 7246 c0 -2 8 -10 18 -17 15 -13 16 -12 3 4 -13 16 -21 21 -21
13z"/>
<path d="M4382 7232 c-21 -6 1001 -5 1323 1 77 1 -184 3 -580 4 -396 0 -730
-2 -743 -5z"/>
<path d="M10000 7230 c0 -6 7 -10 15 -10 8 0 15 2 15 4 0 2 -7 6 -15 10 -8 3
-15 1 -15 -4z"/>
<path d="M3577 7209 c7 -7 15 -10 18 -7 3 3 -2 9 -12 12 -14 6 -15 5 -6 -5z"/>
<path d="M3570 7186 c0 -2 8 -10 18 -17 15 -13 16 -12 3 4 -13 16 -21 21 -21
13z"/>
<path d="M5910 7177 c8 -7 33 -36 55 -64 21 -29 41 -53 43 -53 4 0 -3 11 -58
93 -14 20 -32 37 -40 37 -13 -1 -13 -2 0 -13z"/>
<path d="M5840 7170 c0 -5 5 -10 11 -10 5 0 7 5 4 10 -3 6 -8 10 -11 10 -2 0
-4 -4 -4 -10z"/>
<path d="M3620 7137 c0 -2 15 -16 33 -33 l32 -29 -29 33 c-28 30 -36 37 -36
29z"/>
<path d="M10106 7104 c-9 -24 -7 -28 9 -14 17 14 20 30 6 30 -5 0 -12 -7 -15
-16z"/>
<path d="M5947 7093 c-4 -6 0 -16 8 -23 21 -17 28 -8 11 15 -8 11 -15 14 -19
8z"/>
<path d="M8305 7070 c-3 -5 -1 -10 4 -10 6 0 11 5 11 10 0 6 -2 10 -4 10 -3 0
-8 -4 -11 -10z"/>
<path d="M3700 7055 c0 -10 51 -57 56 -52 3 3 -7 17 -21 31 -26 26 -35 31 -35
21z"/>
<path d="M6020 7011 c16 -30 28 -33 22 -6 -2 14 -11 25 -19 25 -10 0 -11 -4
-3 -19z"/>
<path d="M10080 7000 c0 -11 5 -20 10 -20 6 0 10 9 10 20 0 11 -4 20 -10 20
-5 0 -10 -9 -10 -20z"/>
<path d="M10190 6990 c-12 -8 -10 -10 8 -10 13 0 20 4 17 10 -7 12 -6 12 -25
0z"/>
<path d="M3780 6969 c0 -5 5 -7 10 -4 6 3 10 8 10 11 0 2 -4 4 -10 4 -5 0 -10
-5 -10 -11z"/>
<path d="M3823 6965 c0 -8 4 -12 9 -9 5 3 6 10 3 15 -9 13 -12 11 -12 -6z"/>
<path d="M8231 6964 c0 -11 3 -14 6 -6 3 7 2 16 -1 19 -3 4 -6 -2 -5 -13z"/>
<path d="M6080 6951 c0 -7 10 -26 23 -42 12 -16 31 -42 43 -57 14 -17 21 -40
20 -64 -1 -20 2 -35 5 -32 4 2 10 0 14 -6 3 -5 11 -10 18 -10 6 0 3 6 -7 13
-10 7 -19 29 -20 50 -2 21 -12 48 -23 60 -11 12 -32 40 -47 62 -14 22 -26 34
-26 26z"/>
<path d="M8210 6929 c0 -5 5 -7 10 -4 6 3 10 8 10 11 0 2 -4 4 -10 4 -5 0 -10
-5 -10 -11z"/>
<path d="M10250 6933 c0 -6 8 -17 18 -24 16 -13 16 -13 2 6 -8 11 -16 22 -17
24 -2 2 -3 0 -3 -6z"/>
<path d="M8149 6903 c-13 -16 -12 -17 4 -4 9 7 17 15 17 17 0 8 -8 3 -21 -13z"/>
<path d="M6086 6897 c3 -10 9 -15 12 -12 3 3 0 11 -7 18 -10 9 -11 8 -5 -6z"/>
<path d="M10240 6894 c0 -8 5 -12 10 -9 6 4 8 11 5 16 -9 14 -15 11 -15 -7z"/>
<path d="M3868 6878 c8 -10 20 -14 29 -11 12 5 15 2 10 -10 -3 -9 -2 -17 3
-17 13 0 12 21 -1 40 -8 12 -12 12 -16 2 -4 -10 -8 -10 -21 0 -15 12 -15 11
-4 -4z"/>
<path d="M2985 6870 c-6 -9 15 -50 25 -50 3 0 6 9 7 21 1 14 -3 19 -12 15 -9
-3 -12 0 -8 10 6 16 -3 19 -12 4z"/>
<path d="M8153 6849 c0 -29 2 -30 14 -13 7 10 13 24 13 31 0 7 -6 13 -13 13
-9 0 -14 -12 -14 -31z"/>
<path d="M10280 6865 c0 -12 -6 -15 -20 -10 -11 3 -20 2 -20 -3 0 -11 40 -23
52 -16 11 7 10 32 -2 39 -5 3 -10 -1 -10 -10z"/>
<path d="M6100 6860 c0 -5 5 -10 10 -10 6 0 10 5 10 10 0 6 -4 10 -10 10 -5 0
-10 -4 -10 -10z"/>
<path d="M3030 6843 c0 -12 28 -38 34 -32 2 2 -5 13 -15 23 -11 11 -19 15 -19
9z"/>
<path d="M2931 6795 l-21 -36 25 18 c13 10 23 23 20 30 -2 6 4 14 13 16 15 4
15 5 0 6 -9 0 -25 -15 -37 -34z"/>
<path d="M10330 6815 c0 -8 5 -15 10 -15 6 0 10 -5 10 -11 0 -6 -7 -9 -15 -5
-10 4 -15 -1 -15 -14 0 -21 15 -27 25 -10 3 6 11 10 17 10 6 0 1 -9 -11 -19
-15 -13 -18 -22 -11 -26 6 -4 12 -5 13 -4 2 2 9 12 16 21 11 15 10 23 -9 53
-24 38 -30 43 -30 20z"/>
<path d="M3930 6819 c0 -3 13 -18 29 -33 24 -23 29 -25 35 -11 3 10 2 14 -5 9
-6 -3 -21 4 -35 17 -13 12 -24 20 -24 18z"/>
<path d="M3047 6783 c6 -16 23 -17 23 -2 0 8 5 7 15 -1 13 -11 14 -10 10 2 -4
9 -17 15 -29 14 -14 0 -22 -6 -19 -13z"/>
<path d="M6190 6791 c0 -5 7 -15 17 -22 15 -13 15 -12 4 9 -12 23 -21 28 -21
13z"/>
<path d="M2937 6763 c-12 -12 -7 -22 8 -17 8 4 15 10 15 15 0 11 -14 12 -23 2z"/>
<path d="M3110 6763 c0 -6 8 -17 18 -24 16 -13 16 -13 2 6 -8 11 -16 22 -17
24 -2 2 -3 0 -3 -6z"/>
<path d="M8037 6735 c-9 -19 -12 -37 -8 -40 5 -2 11 2 15 10 3 8 12 15 21 15
8 0 15 7 15 16 0 8 -4 12 -10 9 -6 -3 -7 1 -4 9 12 31 -13 15 -29 -19z"/>
<path d="M4023 6717 c21 -20 41 -37 45 -37 3 0 1 5 -6 12 -9 9 -8 16 5 30 16
18 16 18 0 12 -9 -3 -17 -11 -17 -17 0 -5 -8 -3 -17 5 -39 33 -46 29 -10 -5z"/>
<path d="M3150 6712 c0 -12 19 -26 26 -19 2 2 -2 10 -11 17 -9 8 -15 8 -15 2z"/>
<path d="M2805 6609 c-36 -56 -64 -103 -62 -106 3 -2 17 16 32 41 19 32 31 43
43 40 15 -5 15 -4 2 6 -11 9 -12 13 -2 17 6 2 12 12 12 20 0 13 3 13 15 3 18
-15 19 -37 3 -43 -7 -3 -3 -6 9 -6 20 -1 22 2 12 26 -6 15 -15 31 -22 35 -8 5
-7 12 4 25 20 22 32 43 26 43 -3 0 -35 -45 -72 -101z"/>
<path d="M8066 6701 c-4 -7 -5 -15 -2 -18 9 -9 19 4 14 18 -4 11 -6 11 -12 0z"/>
<path d="M6260 6681 c0 -5 7 -11 15 -15 8 -3 15 -12 15 -19 0 -8 9 -22 20 -32
18 -17 20 -17 14 -2 -3 9 -9 17 -13 17 -3 0 -12 14 -19 30 -13 28 -32 41 -32
21z"/>
<path d="M3150 6670 c0 -5 5 -10 11 -10 5 0 7 5 4 10 -3 6 -8 10 -11 10 -2 0
-4 -4 -4 -10z"/>
<path d="M3190 6676 c0 -2 8 -10 18 -17 15 -13 16 -12 3 4 -13 16 -21 21 -21
13z"/>
<path d="M2872 6650 c0 -14 2 -19 5 -12 2 6 2 18 0 25 -3 6 -5 1 -5 -13z"/>
<path d="M10415 6660 c27 -12 43 -12 25 0 -8 5 -22 9 -30 9 -10 0 -8 -3 5 -9z"/>
<path d="M4097 6638 c9 -10 17 -18 17 -18 1 0 2 8 2 18 0 10 -8 18 -18 18 -16
0 -16 -2 -1 -18z"/>
<path d="M6248 6653 c7 -3 16 -2 19 1 4 3 -2 6 -13 5 -11 0 -14 -3 -6 -6z"/>
<path d="M3230 6632 c0 -12 19 -26 26 -19 2 2 -2 10 -11 17 -9 8 -15 8 -15 2z"/>
<path d="M6260 6630 c0 -5 5 -10 11 -10 5 0 7 5 4 10 -3 6 -8 10 -11 10 -2 0
-4 -4 -4 -10z"/>
<path d="M7950 6618 c-12 -22 -12 -22 6 -6 10 10 15 20 12 24 -4 3 -12 -5 -18
-18z"/>
<path d="M3200 6614 c0 -8 5 -12 10 -9 6 4 8 11 5 16 -9 14 -15 11 -15 -7z"/>
<path d="M4130 6612 c0 -5 7 -13 16 -16 10 -4 14 -1 12 6 -5 15 -28 23 -28 10z"/>
<path d="M6280 6600 c0 -5 5 -10 10 -10 6 0 10 5 10 10 0 6 -4 10 -10 10 -5 0
-10 -4 -10 -10z"/>
<path d="M3225 6590 c-3 -5 1 -10 10 -10 9 0 13 5 10 10 -3 6 -8 10 -10 10 -2
0 -7 -4 -10 -10z"/>
<path d="M3286 6575 c9 -14 20 -25 25 -25 5 0 -1 11 -13 25 -12 14 -23 25 -25
25 -2 0 4 -11 13 -25z"/>
<path d="M6250 6590 c0 -5 5 -10 11 -10 5 0 7 5 4 10 -3 6 -8 10 -11 10 -2 0
-4 -4 -4 -10z"/>
<path d="M10490 6590 c0 -5 5 -10 11 -10 5 0 7 5 4 10 -3 6 -8 10 -11 10 -2 0
-4 -4 -4 -10z"/>
<path d="M6330 6581 c0 -5 5 -13 10 -16 6 -3 10 -2 10 4 0 5 -4 13 -10 16 -5
3 -10 2 -10 -4z"/>
<path d="M4210 6565 c0 -8 7 -15 16 -15 14 0 14 3 4 15 -7 8 -14 15 -16 15 -2
0 -4 -7 -4 -15z"/>
<path d="M4180 6566 c0 -4 14 -24 30 -43 17 -18 30 -29 30 -24 0 13 -59 79
-60 67z"/>
<path d="M10480 6560 c0 -21 17 -46 25 -38 4 4 0 17 -9 30 -10 14 -16 17 -16
8z"/>
<path d="M6360 6546 c0 -2 8 -10 18 -17 15 -13 16 -12 3 4 -13 16 -21 21 -21
13z"/>
<path d="M3290 6525 c0 -13 6 -16 26 -11 19 5 24 4 18 -5 -5 -9 -2 -10 9 -6
11 4 20 -1 27 -13 6 -11 15 -20 21 -20 6 0 -6 17 -27 38 -24 24 -39 32 -42 24
-3 -10 -7 -10 -18 -1 -11 9 -14 8 -14 -6z"/>
<path d="M2781 6514 c0 -11 3 -14 6 -6 3 7 2 16 -1 19 -3 4 -6 -2 -5 -13z"/>
<path d="M6347 6517 c-3 -8 3 -14 16 -15 12 0 17 2 12 6 -6 4 -13 11 -16 15
-4 4 -9 2 -12 -6z"/>
<path d="M6398 6485 c2 -14 13 -30 23 -36 17 -9 17 -7 -2 26 -25 42 -28 43
-21 10z"/>
<path d="M7866 6483 c-6 -14 -5 -15 5 -6 7 7 10 15 7 18 -3 3 -9 -2 -12 -12z"/>
<path d="M10390 6490 c-13 -8 -12 -10 3 -10 9 0 17 5 17 10 0 12 -1 12 -20 0z"/>
<path d="M4277 6458 c56 -62 137 -143 123 -123 -8 11 -23 30 -33 42 -11 12
-16 26 -13 32 4 6 1 9 -7 5 -15 -5 -38 13 -64 52 -8 13 -20 24 -25 24 -6 0 3
-15 19 -32z"/>
<path d="M4290 6480 c0 -5 5 -10 10 -10 6 0 10 5 10 10 0 6 -4 10 -10 10 -5 0
-10 -4 -10 -10z"/>
<path d="M10430 6475 c-13 -16 0 -21 16 -6 5 5 18 11 29 14 16 4 14 5 -6 6
-15 0 -32 -6 -39 -14z"/>
<path d="M10320 6469 c0 -27 24 -36 60 -23 l35 12 -37 1 c-21 1 -38 6 -38 11
0 6 -4 10 -10 10 -5 0 -10 -5 -10 -11z"/>
<path d="M3370 6451 c0 -5 5 -13 10 -16 6 -3 10 -2 10 4 0 5 -4 13 -10 16 -5
3 -10 2 -10 -4z"/>
<path d="M2690 6443 c0 -4 5 -15 10 -23 8 -13 10 -13 10 2 0 9 -4 20 -10 23
-5 3 -10 3 -10 -2z"/>
<path d="M7821 6436 c-8 -10 -8 -16 3 -25 11 -9 14 -7 14 14 0 29 -2 30 -17
11z"/>
<path d="M6400 6435 c1 -15 26 -45 37 -45 6 0 13 9 16 20 4 17 2 20 -15 14
-13 -4 -24 -1 -29 7 -5 8 -9 10 -9 4z"/>
<path d="M2670 6418 c-1 -7 -14 -29 -30 -48 -33 -38 -38 -52 -15 -44 8 3 14 9
13 12 -3 24 4 34 20 30 13 -4 17 2 19 29 1 18 0 33 -3 33 -2 0 -4 -6 -4 -12z"/>
<path d="M10237 6408 c7 -8 9 -18 5 -23 -4 -4 3 -3 14 3 12 6 24 8 28 5 3 -3
6 -1 6 6 0 7 -8 11 -17 9 -10 -1 -25 2 -33 7 -12 7 -13 6 -3 -7z"/>
<path d="M3472 6380 c12 -16 26 -30 32 -30 5 0 -3 14 -19 30 -16 17 -30 30
-32 30 -2 0 6 -13 19 -30z"/>
<path d="M4370 6400 c0 -5 5 -10 10 -10 6 0 10 5 10 10 0 6 -4 10 -10 10 -5 0
-10 -4 -10 -10z"/>
<path d="M10160 6392 c0 -5 14 -9 30 -9 17 0 30 4 30 9 0 4 -13 8 -30 8 -16 0
-30 -4 -30 -8z"/>
<path d="M2702 6360 c7 -10 14 -18 15 -16 6 6 -9 36 -18 36 -5 0 -4 -9 3 -20z"/>
<path d="M3450 6360 c0 -5 5 -10 10 -10 6 0 10 5 10 10 0 6 -4 10 -10 10 -5 0
-10 -4 -10 -10z"/>
<path d="M10190 6360 c-13 -8 -13 -10 2 -10 9 0 20 5 23 10 8 13 -5 13 -25 0z"/>
<path d="M3520 6336 c0 -7 7 -19 15 -26 13 -10 13 -15 3 -21 -7 -4 -9 -11 -5
-16 5 -4 12 -1 18 7 8 13 10 13 18 0 6 -8 12 -12 15 -10 2 3 -11 22 -30 42
-19 21 -34 32 -34 24z"/>
<path d="M4423 6318 c-2 -17 0 -19 7 -9 7 12 11 12 24 2 10 -9 16 -9 16 -3 0
9 -30 32 -42 32 -2 0 -5 -10 -5 -22z"/>
<path d="M6500 6330 c0 -5 5 -10 10 -10 6 0 10 5 10 10 0 6 -4 10 -10 10 -5 0
-10 -4 -10 -10z"/>
<path d="M10090 6330 c0 -5 5 -10 11 -10 5 0 7 5 4 10 -3 6 -8 10 -11 10 -2 0
-4 -4 -4 -10z"/>
<path d="M10135 6330 c3 -5 -1 -10 -7 -13 -7 -2 -11 -7 -8 -9 3 -3 18 3 33 12
l28 18 -25 0 c-14 0 -23 -4 -21 -8z"/>
<path d="M6487 6301 c3 -12 9 -21 14 -21 14 0 11 16 -5 29 -12 10 -13 8 -9 -8z"/>
<path d="M10065 6310 c-3 -5 -1 -10 4 -10 6 0 11 5 11 10 0 6 -2 10 -4 10 -3
0 -8 -4 -11 -10z"/>
<path d="M2586 6294 c-7 -19 1 -34 17 -33 9 0 9 2 1 5 -7 3 -10 14 -7 24 6 24
-2 27 -11 4z"/>
<path d="M2620 6291 c0 -11 5 -23 10 -26 6 -4 10 5 10 19 0 14 -4 26 -10 26
-5 0 -10 -9 -10 -19z"/>
<path d="M10085 6290 c-3 -6 1 -7 9 -4 18 7 21 14 7 14 -6 0 -13 -4 -16 -10z"/>
<path d="M6552 6258 c-2 -27 17 -78 29 -78 16 0 9 54 -9 78 l-18 23 -2 -23z
m15 -30 c-3 -8 -6 -5 -6 6 -1 11 2 17 5 13 3 -3 4 -12 1 -19z"/>
<path d="M9997 6266 c-4 -10 0 -12 16 -8 21 5 21 4 -3 -17 l-25 -22 32 17 c29
16 30 19 15 30 -22 17 -29 17 -35 0z"/>
<path d="M4460 6266 c0 -2 7 -9 15 -16 9 -7 15 -8 15 -2 0 5 -7 12 -15 16 -8
3 -15 4 -15 2z"/>
<path d="M3600 6240 c0 -6 8 -13 18 -17 30 -11 94 -86 80 -94 -7 -4 -9 -11 -5
-16 5 -4 12 -1 17 7 8 13 12 12 24 -5 9 -11 16 -15 16 -9 0 11 -133 144 -144
144 -3 0 -6 -5 -6 -10z"/>
<path d="M2498 6170 c-26 -38 -43 -70 -37 -72 7 -2 6 -17 -5 -43 -12 -30 -12
-35 -2 -22 10 14 15 15 19 5 3 -7 4 8 2 34 -4 46 2 58 48 108 13 14 33 61 25
60 -2 -1 -24 -32 -50 -70z"/>
<path d="M4500 6232 c0 -5 7 -15 15 -22 8 -7 15 -8 15 -2 0 5 -7 15 -15 22 -8
7 -15 8 -15 2z"/>
<path d="M4546 6215 c4 -8 8 -15 10 -15 2 0 4 7 4 15 0 8 -4 15 -10 15 -5 0
-7 -7 -4 -15z"/>
<path d="M3620 6194 c0 -8 5 -12 10 -9 6 3 10 10 10 16 0 5 -4 9 -10 9 -5 0
-10 -7 -10 -16z"/>
<path d="M9942 6195 c-7 -8 -9 -15 -4 -15 5 0 15 7 22 15 16 19 -1 19 -18 0z"/>
<path d="M4540 6186 c0 -2 8 -10 18 -17 15 -13 16 -12 3 4 -13 16 -21 21 -21
13z"/>
<path d="M4580 6176 c0 -10 28 -13 41 -5 10 6 7 9 -13 9 -16 0 -28 -2 -28 -4z"/>
<path d="M7631 6162 c-7 -13 -6 -23 2 -31 9 -9 9 -14 -1 -20 -9 -5 -4 -8 15
-7 24 1 28 5 29 29 1 17 -2 24 -6 17 -4 -7 -13 -9 -20 -5 -10 6 -9 11 5 22 17
11 17 13 2 13 -9 0 -21 -8 -26 -18z"/>
<path d="M6497 6163 c-12 -11 -8 -23 8 -23 8 0 15 7 15 15 0 16 -12 20 -23 8z"/>
<path d="M6552 6150 c-7 -11 -9 -20 -4 -20 4 0 13 9 20 20 7 11 9 20 4 20 -4
0 -13 -9 -20 -20z"/>
<path d="M9885 6150 c-10 -11 -16 -20 -13 -20 3 0 15 9 28 20 13 11 19 20 13
20 -5 0 -18 -9 -28 -20z"/>
<path d="M2510 6135 c-6 -8 -10 -19 -8 -26 2 -6 9 0 16 15 13 29 10 33 -8 11z"/>
<path d="M4590 6135 c7 -9 15 -13 17 -11 7 7 -7 26 -19 26 -6 0 -6 -6 2 -15z"/>
<path d="M7596 6113 c-6 -14 -5 -15 5 -6 7 7 10 15 7 18 -3 3 -9 -2 -12 -12z"/>
<path d="M6515 6110 c-3 -6 -14 -9 -23 -8 -10 2 -16 -3 -14 -11 1 -7 -3 -19
-9 -27 -8 -10 -8 -14 0 -14 6 0 11 5 11 11 0 5 4 8 9 5 5 -3 14 1 21 9 7 8 9
15 4 15 -5 0 -2 4 6 10 8 5 12 12 8 15 -3 4 -9 1 -13 -5z m-5 -25 c0 -12 -19
-12 -23 0 -4 9 -1 12 9 8 7 -3 14 -7 14 -8z"/>
<path d="M4631 6093 c7 -12 15 -20 18 -17 3 2 -3 12 -13 22 -17 16 -18 16 -5
-5z"/>
<path d="M4670 6086 c4 -4 16 -4 26 2 16 9 14 10 -8 9 -15 -1 -23 -6 -18 -11z"/>
<path d="M9785 6075 c-16 -13 -26 -27 -23 -30 3 -4 21 7 40 24 39 36 26 41
-17 6z"/>
<path d="M6417 6083 c-12 -11 -8 -23 8 -23 8 0 15 7 15 15 0 16 -12 20 -23 8z"/>
<path d="M2422 6060 c-14 -23 -15 -30 -3 -30 8 0 24 41 18 47 -2 1 -8 -7 -15
-17z"/>
<path d="M3767 6073 c-12 -12 -7 -23 7 -17 11 4 13 0 9 -15 -3 -13 -1 -21 6
-21 7 0 9 5 6 10 -9 14 8 12 25 -2 8 -7 2 2 -14 20 -34 36 -30 34 -39 25z"/>
<path d="M4665 6058 c4 -9 17 -15 29 -14 14 0 22 6 19 14 -6 15 -23 16 -23 1
0 -8 -5 -7 -15 1 -13 11 -14 10 -10 -2z"/>
<path d="M6435 6030 c-3 -6 -14 -9 -23 -8 -10 2 -16 -3 -14 -11 1 -7 -3 -19
-9 -27 -8 -10 -8 -14 0 -14 6 0 11 5 11 11 0 5 4 8 9 5 5 -3 14 1 21 9 7 8 9
15 4 15 -5 0 -2 4 6 10 8 5 12 12 8 15 -3 4 -9 1 -13 -5z m-5 -25 c0 -12 -19
-12 -23 0 -4 9 -1 12 9 8 7 -3 14 -7 14 -8z"/>
<path d="M7540 6030 c0 -5 10 -10 23 -10 18 0 19 2 7 10 -19 13 -30 13 -30 0z"/>
<path d="M4724 5995 c19 -19 37 -35 42 -35 4 0 -7 16 -26 35 -19 19 -37 35
-41 35 -4 0 7 -16 25 -35z"/>
<path d="M4764 6009 c-3 -6 0 -18 9 -26 13 -14 15 -13 14 11 -2 27 -11 34 -23
15z"/>
<path d="M9718 6013 c-10 -2 -18 -9 -18 -14 0 -14 16 -11 30 6 7 8 11 14 9 14
-2 -1 -12 -3 -21 -6z"/>
<path d="M6337 6003 c-12 -11 -8 -23 8 -23 8 0 15 7 15 15 0 16 -12 20 -23 8z"/>
<path d="M2369 5979 c-8 -15 -8 -24 0 -32 13 -13 13 -12 15 26 2 33 0 33 -15
6z"/>
<path d="M3845 5989 c-4 -6 -5 -12 -2 -15 2 -3 7 2 10 11 7 17 1 20 -8 4z"/>
<path d="M9660 5991 c0 -6 5 -13 10 -16 6 -3 10 1 10 9 0 9 -4 16 -10 16 -5 0
-10 -4 -10 -9z"/>
<path d="M6355 5950 c-3 -6 -14 -9 -23 -8 -10 2 -16 -3 -14 -11 1 -7 -3 -19
-9 -27 -8 -10 -8 -14 0 -14 6 0 11 5 11 11 0 5 4 8 9 5 5 -3 14 1 21 9 7 8 9
15 4 15 -5 0 -2 4 6 10 8 5 12 12 8 15 -3 4 -9 1 -13 -5z m-5 -25 c0 -12 -19
-12 -23 0 -4 9 -1 12 9 8 7 -3 14 -7 14 -8z"/>
<path d="M9608 5935 c-22 -30 -22 -30 1 -32 11 -1 22 5 25 14 6 14 4 14 -10 2
-15 -12 -17 -12 -12 1 3 8 14 15 26 14 13 0 18 4 15 13 -8 20 -26 15 -45 -12z"/>
<path d="M2344 5924 c-1 -13 2 -21 7 -18 11 6 12 31 2 37 -5 3 -9 -6 -9 -19z"/>
<path d="M4770 5946 c0 -2 7 -9 15 -16 13 -11 14 -10 9 4 -5 14 -24 23 -24 12z"/>
<path d="M7490 5936 c7 -7 13 -7 20 0 6 6 3 10 -10 10 -13 0 -16 -4 -10 -10z"/>
<path d="M4862 5932 c-10 -7 -10 -14 2 -37 l15 -28 -2 36 c-1 20 -2 37 -2 37
0 0 -6 -4 -13 -8z"/>
<path d="M6257 5923 c-12 -11 -8 -23 8 -23 8 0 15 7 15 15 0 16 -12 20 -23 8z"/>
<path d="M3930 5913 c0 -6 7 -13 15 -17 8 -3 15 -10 15 -15 0 -6 -7 -7 -17 -4
-11 4 -14 3 -9 -5 8 -14 32 -16 40 -3 3 4 -6 19 -19 31 -14 13 -25 19 -25 13z"/>
<path d="M4816 5905 c4 -9 16 -21 28 -27 19 -10 19 -9 -3 16 -28 30 -33 32
-25 11z"/>
<path d="M7465 5893 c8 -31 13 -39 20 -31 9 9 -6 58 -17 58 -6 0 -7 -11 -3
-27z"/>
<path d="M2307 5898 c-4 -12 -104 -157 -126 -184 -7 -8 0 -11 25 -11 21 1 34
6 34 14 0 16 -12 17 -28 1 -16 -16 -15 3 2 24 7 10 16 15 20 11 4 -4 4 -1 1 8
-3 9 5 25 21 39 26 24 27 24 22 3 -4 -16 -2 -20 8 -16 17 6 18 30 2 35 -16 6
-2 39 14 34 7 -1 10 -1 6 1 -5 3 -3 14 3 25 6 11 9 22 6 24 -2 3 -7 -1 -10 -8z"/>
<path d="M6275 5870 c-3 -6 -14 -9 -23 -8 -10 2 -16 -3 -14 -11 1 -7 -2 -19
-8 -26 -8 -9 -6 -14 4 -18 11 -4 13 -1 9 10 -4 10 -2 14 4 10 6 -4 16 0 23 8
7 8 9 15 4 15 -5 0 -2 4 6 10 8 5 12 12 8 15 -3 4 -9 1 -13 -5z m-10 -28 c-3
-3 -11 0 -18 7 -9 10 -8 11 6 5 10 -3 15 -9 12 -12z"/>
<path d="M9540 5862 c-8 -9 -15 -27 -15 -39 -1 -21 0 -21 17 -6 10 9 16 23 13
31 -3 9 0 12 9 9 10 -4 13 -1 9 9 -7 18 -14 17 -33 -4z m10 -22 c0 -5 -4 -10
-10 -10 -5 0 -10 5 -10 10 0 6 5 10 10 10 6 0 10 -4 10 -10z"/>
<path d="M4920 5851 c0 -5 7 -12 16 -15 24 -9 28 -7 14 9 -14 17 -30 20 -30 6z"/>
<path d="M4000 5843 c0 -5 14 -22 30 -38 17 -16 30 -26 30 -22 0 4 -13 21 -30
39 -16 17 -30 27 -30 21z"/>
<path d="M6177 5843 c-12 -11 -8 -23 8 -23 8 0 15 7 15 15 0 16 -12 20 -23 8z"/>
<path d="M7402 5830 c-16 -27 -15 -35 3 -20 9 7 18 10 22 6 4 -3 -2 -13 -13
-20 -14 -11 -16 -17 -7 -26 16 -17 37 24 29 56 -8 29 -17 30 -34 4z"/>
<path d="M4931 5784 c84 -89 121 -124 116 -110 -3 8 -1 17 6 20 7 3 6 5 -3 3
-8 -1 -43 26 -78 61 -67 66 -99 86 -41 26z"/>
<path d="M6195 5790 c-3 -6 -14 -9 -23 -8 -10 2 -16 -3 -14 -11 1 -7 -3 -19
-9 -27 -8 -10 -8 -14 0 -14 6 0 11 5 11 11 0 5 4 8 9 5 5 -3 14 1 21 9 7 8 9
15 4 15 -5 0 -2 4 6 10 8 5 12 12 8 15 -3 4 -9 1 -13 -5z"/>
<path d="M6097 5763 c-12 -11 -8 -23 8 -23 8 0 15 7 15 15 0 16 -12 20 -23 8z"/>
<path d="M7340 5761 c0 -5 5 -13 10 -16 6 -3 10 -2 10 4 0 5 -4 13 -10 16 -5
3 -10 2 -10 -4z"/>
<path d="M9445 5759 c-4 -6 -5 -12 -2 -15 2 -3 7 2 10 11 7 17 1 20 -8 4z"/>
<path d="M7301 5757 c2 -1 15 -11 29 -22 l25 -20 -19 23 c-11 12 -24 22 -29
22 -6 0 -8 -1 -6 -3z"/>
<path d="M4080 5721 c0 -6 4 -13 10 -16 6 -3 7 1 4 9 -7 18 -14 21 -14 7z"/>
<path d="M4110 5726 c0 -2 8 -10 18 -17 15 -13 16 -12 3 4 -13 16 -21 21 -21
13z"/>
<path d="M9437 5710 c-10 -12 -23 -17 -34 -14 -14 5 -15 4 -4 -4 7 -5 10 -15
7 -21 -5 -8 -14 -4 -27 11 l-20 23 17 -32 18 -33 15 25 c9 14 19 25 23 25 4 0
12 9 18 20 14 25 9 25 -13 0z"/>
<path d="M6115 5710 c-3 -6 -14 -9 -23 -8 -10 2 -16 -3 -14 -11 1 -7 -3 -19
-9 -27 -8 -10 -8 -14 0 -14 6 0 11 5 11 11 0 5 4 8 9 5 5 -3 14 1 21 9 7 8 9
15 4 15 -5 0 -2 4 6 10 8 5 12 12 8 15 -3 4 -9 1 -13 -5z"/>
<path d="M5070 5681 c0 -12 29 -35 36 -28 4 3 -1 13 -9 22 -17 17 -27 19 -27
6z"/>
<path d="M6017 5683 c-12 -11 -8 -23 8 -23 8 0 15 7 15 15 0 16 -12 20 -23 8z"/>
<path d="M7380 5686 c0 -3 15 -15 33 -27 23 -17 28 -18 18 -6 -14 18 -51 42
-51 33z"/>
<path d="M2134 5647 l-22 -33 22 -2 c16 -1 18 1 6 8 -13 8 -9 13 10 12 3 0 6
11 6 24 1 13 1 24 0 24 0 0 -11 -15 -22 -33z"/>
<path d="M4161 5673 c0 -5 14 -19 32 -32 l32 -25 -29 32 c-31 33 -36 37 -35
25z"/>
<path d="M5060 5650 c0 -5 5 -10 11 -10 5 0 7 5 4 10 -3 6 -8 10 -11 10 -2 0
-4 -4 -4 -10z"/>
<path d="M4165 5630 c3 -5 11 -10 16 -10 6 0 7 5 4 10 -3 6 -11 10 -16 10 -6
0 -7 -4 -4 -10z"/>
<path d="M5110 5630 c0 -5 -8 -7 -17 -3 -10 3 -1 -11 20 -31 21 -21 40 -36 43
-34 2 3 -7 15 -20 27 -14 13 -22 29 -19 37 3 8 2 14 -1 14 -3 0 -6 -4 -6 -10z"/>
<path d="M6036 5632 c-4 -7 -5 -12 -2 -12 3 0 -2 -8 -11 -18 -10 -11 -21 -17
-25 -15 -4 2 -9 -1 -13 -7 -3 -5 0 -10 8 -10 19 0 60 46 55 61 -3 10 -6 10
-12 1z"/>
<path d="M7460 5616 c0 -2 7 -9 15 -16 9 -7 15 -8 15 -2 0 5 -7 12 -15 16 -8
3 -15 4 -15 2z"/>
<path d="M7504 5600 c0 -13 4 -16 10 -10 7 7 7 13 0 20 -6 6 -10 3 -10 -10z"/>
<path d="M9316 5611 c-4 -5 3 -7 14 -4 12 3 20 0 20 -6 0 -7 5 -9 11 -5 8 4 7
9 -2 15 -18 11 -36 11 -43 0z"/>
<path d="M5145 5600 c3 -5 8 -10 11 -10 2 0 4 5 4 10 0 6 -5 10 -11 10 -5 0
-7 -4 -4 -10z"/>
<path d="M5937 5603 c-12 -11 -8 -23 8 -23 8 0 15 7 15 15 0 16 -12 20 -23 8z"/>
<path d="M2100 5595 c0 -5 5 -17 10 -25 5 -8 10 -10 10 -5 0 6 -5 17 -10 25
-5 8 -10 11 -10 5z"/>
<path d="M9331 5574 c0 -11 3 -14 6 -6 3 7 2 16 -1 19 -3 4 -6 -2 -5 -13z"/>
<path d="M9295 5563 c4 -10 7 -27 7 -38 -1 -18 0 -18 9 -3 7 12 6 24 -1 38
-13 25 -25 27 -15 3z"/>
<path d="M2072 5558 c-7 -7 -12 -18 -12 -25 0 -7 -4 -13 -8 -13 -4 0 -16 -15
-26 -32 l-17 -33 21 24 c22 25 42 22 20 -4 -10 -12 -9 -15 5 -15 14 0 16 6 12
28 -3 16 0 40 8 55 15 30 15 33 -3 15z"/>
<path d="M7535 5560 c3 -5 8 -10 11 -10 2 0 4 5 4 10 0 6 -5 10 -11 10 -5 0
-7 -4 -4 -10z"/>
<path d="M5956 5552 c-4 -7 -5 -12 -2 -12 3 0 -2 -8 -11 -18 -10 -11 -21 -17
-25 -15 -4 2 -9 -1 -13 -7 -3 -5 0 -10 8 -10 19 0 60 46 55 61 -3 10 -6 10
-12 1z"/>
<path d="M5220 5485 c60 -61 89 -84 60 -50 -7 9 -10 18 -7 22 4 3 25 -12 47
-34 22 -23 40 -36 40 -31 0 17 -59 69 -81 71 -24 2 -80 52 -76 69 1 6 -9 12
-23 14 -21 4 -15 -6 40 -61z"/>
<path d="M5230 5524 c0 -10 31 -36 37 -31 3 3 -2 13 -10 22 -16 15 -27 19 -27
9z"/>
<path d="M5857 5523 c-12 -11 -8 -23 8 -23 8 0 15 7 15 15 0 16 -12 20 -23 8z"/>
<path d="M7571 5520 c6 -4 16 -14 21 -21 8 -11 8 -10 4 4 -5 15 -2 17 14 12
11 -4 20 -2 20 4 0 6 -16 10 -35 9 -20 -1 -31 -5 -24 -8z"/>
<path d="M4320 5518 c0 -10 49 -62 54 -57 3 3 -8 18 -24 34 -17 16 -30 26 -30
23z"/>
<path d="M7610 5493 c0 -11 63 -73 73 -73 4 0 7 7 7 16 0 8 -4 13 -9 10 -5 -4
-23 8 -40 25 -17 17 -31 27 -31 22z"/>
<path d="M7652 5488 c2 -6 10 -14 16 -16 7 -2 10 2 6 12 -7 18 -28 22 -22 4z"/>
<path d="M5876 5472 c-4 -7 -5 -12 -2 -12 3 0 -2 -8 -11 -18 -10 -11 -21 -17
-25 -15 -4 2 -9 -1 -13 -7 -3 -5 0 -10 8 -10 19 0 60 46 55 61 -3 10 -6 10
-12 1z"/>
<path d="M5342 5446 c7 -8 15 -12 17 -11 5 6 -10 25 -20 25 -5 0 -4 -6 3 -14z"/>
<path d="M7721 5446 c-8 -10 -9 -16 -1 -21 5 -3 10 1 10 11 0 14 2 15 17 3 14
-12 16 -12 12 0 -7 21 -24 24 -38 7z"/>
<path d="M9250 5449 c0 -5 5 -7 10 -4 6 3 10 8 10 11 0 2 -4 4 -10 4 -5 0 -10
-5 -10 -11z"/>
<path d="M5777 5443 c-12 -11 -8 -23 8 -23 8 0 15 7 15 15 0 16 -12 20 -23 8z"/>
<path d="M1949 5378 c-23 -35 -42 -69 -42 -75 0 -7 -4 -13 -9 -13 -5 0 -6 -5
-2 -12 5 -8 11 -6 20 7 7 10 11 21 9 26 -3 4 6 20 20 35 13 14 22 30 19 35 -3
5 -1 9 4 9 5 0 14 11 20 25 19 42 5 28 -39 -37z"/>
<path d="M4400 5431 c0 -5 5 -13 10 -16 6 -3 10 -2 10 4 0 5 -4 13 -10 16 -5
3 -10 2 -10 -4z"/>
<path d="M9225 5409 c-10 -30 0 -33 13 -4 6 14 7 25 2 25 -5 0 -12 -9 -15 -21z"/>
<path d="M5300 5410 c0 -5 5 -10 11 -10 5 0 7 5 4 10 -3 6 -8 10 -11 10 -2 0
-4 -4 -4 -10z"/>
<path d="M7700 5414 c0 -10 52 -60 80 -79 9 -6 8 -2 -3 7 -11 10 -15 23 -11
30 4 7 3 10 -1 5 -5 -4 -21 5 -37 20 -15 15 -28 22 -28 17z"/>
<path d="M9201 5404 c0 -11 3 -14 6 -6 3 7 2 16 -1 19 -3 4 -6 -2 -5 -13z"/>
<path d="M4430 5402 c0 -12 19 -26 26 -19 2 2 -2 10 -11 17 -9 8 -15 8 -15 2z"/>
<path d="M7745 5400 c3 -5 8 -10 11 -10 2 0 4 5 4 10 0 6 -5 10 -11 10 -5 0
-7 -4 -4 -10z"/>
<path d="M4402 5388 c5 -23 38 -39 38 -18 0 5 -9 14 -20 20 -16 8 -20 8 -18
-2z"/>
<path d="M5796 5392 c-4 -7 -5 -12 -2 -12 3 0 -2 -8 -11 -18 -10 -11 -21 -17
-25 -15 -4 2 -9 -1 -13 -7 -3 -5 0 -10 8 -10 19 0 60 46 55 61 -3 10 -6 10
-12 1z"/>
<path d="M9175 5370 c3 -5 8 -10 11 -10 2 0 4 5 4 10 0 6 -5 10 -11 10 -5 0
-7 -4 -4 -10z"/>
<path d="M5697 5363 c-12 -11 -8 -23 8 -23 8 0 15 7 15 15 0 16 -12 20 -23 8z"/>
<path d="M7790 5360 c0 -5 5 -10 10 -10 6 0 10 5 10 10 0 6 -4 10 -10 10 -5 0
-10 -4 -10 -10z"/>
<path d="M4472 5344 c-15 -16 2 -59 19 -48 5 3 16 1 23 -5 10 -9 15 -8 19 3 4
10 1 13 -9 9 -8 -3 -14 -2 -12 3 2 5 -4 19 -12 30 -13 18 -17 19 -28 8z m27
-18 c9 -10 8 -15 -2 -19 -8 -3 -13 3 -14 14 -2 23 1 24 16 5z"/>
<path d="M9195 5349 c-4 -6 -5 -12 -2 -15 2 -3 7 2 10 11 7 17 1 20 -8 4z"/>
<path d="M1972 5329 c1 -12 8 -24 15 -26 7 -3 9 3 6 17 -8 29 -25 37 -21 9z"/>
<path d="M5370 5341 c0 -6 5 -13 10 -16 6 -3 10 1 10 9 0 9 -4 16 -10 16 -5 0
-10 -4 -10 -9z"/>
<path d="M9131 5333 c-1 -12 4 -25 9 -28 12 -7 12 2 0 30 -8 19 -9 19 -9 -2z"/>
<path d="M9166 5332 c4 -15 -4 -41 -21 -75 -15 -28 -21 -46 -13 -39 8 6 23 30
33 52 15 32 16 44 6 63 l-11 22 6 -23z"/>
<path d="M5412 5313 c-6 -13 -3 -23 10 -35 10 -10 18 -14 18 -8 0 5 6 7 14 4
8 -3 17 0 21 6 5 8 -2 11 -21 8 -25 -3 -29 0 -26 20 4 26 -4 29 -16 5z"/>
<path d="M1945 5310 c-3 -5 -1 -10 4 -10 6 0 11 5 11 10 0 6 -2 10 -4 10 -3 0
-8 -4 -11 -10z"/>
<path d="M5716 5312 c-4 -7 -5 -12 -2 -12 3 0 -2 -8 -11 -18 -10 -11 -21 -17
-25 -15 -4 2 -9 -1 -13 -7 -3 -5 0 -10 8 -10 19 0 60 46 55 61 -3 10 -6 10
-12 1z"/>
<path d="M7820 5296 c0 -2 7 -9 15 -16 13 -11 14 -10 9 4 -5 14 -24 23 -24 12z"/>
<path d="M7906 5287 c3 -10 9 -15 12 -12 3 3 0 11 -7 18 -10 9 -11 8 -5 -6z"/>
<path d="M5617 5283 c-12 -11 -8 -23 8 -23 8 0 15 7 15 15 0 16 -12 20 -23 8z"/>
<path d="M7867 5275 c-6 -14 98 -115 118 -115 6 1 1 7 -9 15 -71 54 -106 89
-96 95 8 5 9 10 2 14 -5 3 -12 -1 -15 -9z"/>
<path d="M6590 5265 c-7 -8 -8 -15 -2 -15 5 0 15 7 22 15 7 8 8 15 2 15 -5 0
-15 -7 -22 -15z"/>
<path d="M1857 5247 c-13 -20 -13 -23 2 -23 10 0 16 9 16 23 0 13 -1 23 -1 23
-1 0 -8 -10 -17 -23z"/>
<path d="M4550 5255 c6 -8 8 -20 4 -27 -6 -10 -3 -9 9 1 14 11 20 11 32 1 18
-15 20 -37 3 -43 -8 -2 -9 -8 -4 -13 5 -5 11 -4 13 4 8 22 35 14 28 -8 -5 -15
-3 -18 9 -14 9 3 16 8 16 11 0 12 -84 92 -92 87 -4 -3 -8 0 -8 5 0 6 -5 11
-11 11 -8 0 -8 -4 1 -15z"/>
<path d="M4492 5248 c6 -18 28 -21 28 -4 0 9 -7 16 -16 16 -9 0 -14 -5 -12
-12z"/>
<path d="M5460 5245 c7 -9 15 -13 17 -11 7 7 -7 26 -19 26 -6 0 -6 -6 2 -15z"/>
<path d="M5497 5253 c-5 -7 -5 -17 -2 -23 3 -5 0 -10 -7 -10 -7 0 2 -14 20
-31 31 -28 35 -29 51 -15 10 9 23 16 29 16 7 0 12 5 12 10 0 16 -30 12 -36 -5
-4 -8 -15 -15 -26 -15 -16 0 -18 3 -9 14 9 10 8 15 -3 19 -8 3 -16 16 -18 29
-2 16 -6 19 -11 11z m21 -58 c-3 -3 -9 2 -12 12 -6 14 -5 15 5 6 7 -7 10 -15
7 -18z"/>
<path d="M6625 5250 c3 -5 8 -10 11 -10 2 0 4 5 4 10 0 6 -5 10 -11 10 -5 0
-7 -4 -4 -10z"/>
<path d="M1890 5239 c0 -15 18 -19 23 -6 3 8 -1 14 -9 14 -8 0 -14 -4 -14 -8z"/>
<path d="M5640 5235 c-1 -5 -2 -13 -1 -17 0 -5 -3 -8 -9 -8 -5 0 -14 -10 -21
-22 -10 -21 -9 -21 16 3 15 15 25 33 22 40 -3 8 -6 10 -7 4z"/>
<path d="M6549 5223 c-13 -16 -12 -17 4 -4 9 7 17 15 17 17 0 8 -8 3 -21 -13z"/>
<path d="M6645 5220 c-3 -6 1 -7 9 -4 18 7 21 14 7 14 -6 0 -13 -4 -16 -10z"/>
<path d="M6680 5211 c0 -6 4 -13 10 -16 6 -3 7 1 4 9 -7 18 -14 21 -14 7z"/>
<path d="M7965 5204 c9 -9 19 -13 23 -10 3 4 0 11 -8 16 -24 15 -33 11 -15 -6z"/>
<path d="M1811 5177 c-11 -19 -34 -51 -51 -72 -16 -21 -30 -43 -30 -49 0 -6 5
-3 11 8 9 15 13 16 21 5 7 -10 8 -9 4 5 -4 11 -3 22 1 25 18 13 79 111 69 111
-2 0 -14 -15 -25 -33z"/>
<path d="M6510 5185 c-8 -9 -8 -15 -2 -15 12 0 26 19 19 26 -2 2 -10 -2 -17
-11z"/>
<path d="M9121 5184 c0 -11 3 -14 6 -6 3 7 2 16 -1 19 -3 4 -6 -2 -5 -13z"/>
<path d="M6547 5163 c5 -12 2 -15 -10 -10 -9 3 -17 2 -17 -4 0 -17 35 -5 38
14 2 9 -1 17 -7 17 -6 0 -7 -8 -4 -17z"/>
<path d="M5570 5150 c-6 -11 -8 -20 -6 -20 3 0 10 9 16 20 6 11 8 20 6 20 -3
0 -10 -9 -16 -20z"/>
<path d="M6730 5152 c6 -13 14 -21 18 -18 3 4 -2 14 -12 24 -18 16 -18 16 -6
-6z"/>
<path d="M4662 5135 c-10 -21 -9 -27 3 -31 8 -4 15 -12 15 -20 0 -8 5 -14 10
-14 15 0 12 16 -5 30 -17 14 -20 40 -5 40 6 0 10 -7 10 -15 0 -8 7 -15 16 -15
10 0 14 -6 10 -15 -10 -27 5 -47 30 -41 17 5 24 2 24 -9 0 -8 7 -15 15 -15 11
0 14 -7 9 -25 -4 -15 -2 -25 5 -25 6 0 8 8 4 18 -3 9 37 -25 88 -75 52 -51 99
-96 104 -100 14 -11 -104 114 -221 234 -100 102 -101 103 -112 78z m84 -72
c-7 -7 -26 7 -26 19 0 6 6 6 15 -2 9 -7 13 -15 11 -17z"/>
<path d="M6469 5143 c-13 -16 -12 -17 4 -4 9 7 17 15 17 17 0 8 -8 3 -21 -13z"/>
<path d="M8014 5127 c31 -27 50 -26 61 1 6 16 5 16 -11 0 -16 -16 -19 -16 -48
3 l-31 21 29 -25z"/>
<path d="M1821 5128 c-1 -10 -7 -18 -13 -19 -7 0 -4 -4 7 -8 26 -11 27 -9 16
20 -7 17 -10 19 -10 7z"/>
<path d="M9040 5120 c0 -11 2 -20 4 -20 2 0 6 9 9 20 3 11 1 20 -4 20 -5 0 -9
-9 -9 -20z"/>
<path d="M6430 5105 c-8 -9 -8 -15 -2 -15 12 0 26 19 19 26 -2 2 -10 -2 -17
-11z"/>
<path d="M9056 5075 c-4 -27 -9 -61 -12 -75 l-4 -25 14 25 c8 14 12 39 10 55
-3 23 -2 25 4 10 8 -18 9 -17 14 7 3 15 2 25 -3 23 -4 -3 -9 3 -12 12 -2 10
-7 -4 -11 -32z"/>
<path d="M6765 5100 c3 -5 8 -10 11 -10 2 0 4 5 4 10 0 6 -5 10 -11 10 -5 0
-7 -4 -4 -10z"/>
<path d="M1780 5075 c0 -8 2 -15 4 -15 2 0 6 7 10 15 3 8 1 15 -4 15 -6 0 -10
-7 -10 -15z"/>
<path d="M4646 5075 c4 -8 10 -15 15 -15 4 0 6 7 3 15 -4 8 -10 15 -15 15 -4
0 -6 -7 -3 -15z"/>
<path d="M1810 5070 c0 -5 5 -10 11 -10 5 0 7 5 4 10 -3 6 -8 10 -11 10 -2 0
-4 -4 -4 -10z"/>
<path d="M6389 5063 c-13 -16 -12 -17 4 -4 9 7 17 15 17 17 0 8 -8 3 -21 -13z"/>
<path d="M6430 5070 c-9 -6 -10 -10 -3 -10 6 0 15 5 18 10 8 12 4 12 -15 0z"/>
<path d="M8090 5056 c0 -2 17 -16 38 -31 l37 -28 -29 31 c-26 28 -46 40 -46
28z"/>
<path d="M1701 5022 c-17 -31 -13 -40 5 -14 9 13 14 26 11 29 -3 2 -10 -4 -16
-15z"/>
<path d="M1730 5010 c-12 -16 -17 -30 -12 -30 6 0 13 6 15 13 4 9 8 9 15 -1 6
-10 9 -5 8 17 -1 17 -2 31 -3 31 -1 0 -11 -13 -23 -30z"/>
<path d="M4740 5036 c0 -11 30 -39 36 -34 2 3 -5 13 -16 23 -11 10 -20 15 -20
11z"/>
<path d="M6350 5025 c-8 -9 -8 -15 -2 -15 12 0 26 19 19 26 -2 2 -10 -2 -17
-11z"/>
<path d="M6804 5014 c1 -22 6 -30 21 -32 15 -1 16 1 6 7 -8 5 -11 16 -8 26 4
9 3 14 -2 10 -5 -3 -11 1 -14 7 -2 7 -4 -1 -3 -18z"/>
<path d="M4722 4999 c2 -7 10 -15 17 -17 8 -3 12 1 9 9 -2 7 -10 15 -17 17 -8
3 -12 -1 -9 -9z"/>
<path d="M6309 4983 c-13 -16 -12 -17 4 -4 9 7 17 15 17 17 0 8 -8 3 -21 -13z"/>
<path d="M8200 4960 c14 -12 58 -52 99 -88 40 -37 84 -76 98 -87 14 -11 46
-39 71 -62 25 -24 51 -43 56 -43 6 0 -1 10 -17 21 -15 11 -24 25 -21 30 3 5 1
8 -5 7 -6 -2 -28 12 -49 30 -109 97 -145 132 -135 132 6 0 16 -7 23 -15 14
-17 30 -20 30 -6 0 8 -31 22 -56 25 -5 1 -28 15 -50 32 -47 37 -79 54 -44 24z"/>
<path d="M8302 4966 c7 -8 15 -12 17 -11 5 6 -10 25 -20 25 -5 0 -4 -6 3 -14z"/>
<path d="M1650 4947 c-8 -12 -18 -27 -22 -33 -4 -7 1 -10 15 -8 12 1 25 3 30
3 4 1 7 6 7 12 0 6 -7 9 -15 5 -20 -7 -19 11 1 22 9 5 12 12 7 15 -5 3 -16 -4
-23 -16z"/>
<path d="M4810 4962 c0 -11 48 -57 54 -51 2 2 -9 17 -25 32 -16 16 -29 24 -29
19z"/>
<path d="M11603 4955 c-7 -8 -9 -16 -4 -19 5 -3 12 1 15 10 8 22 4 25 -11 9z"/>
<path d="M6270 4945 c-8 -9 -8 -15 -2 -15 12 0 26 19 19 26 -2 2 -10 -2 -17
-11z"/>
<path d="M11630 4945 c-9 -10 -9 -15 -1 -15 6 0 11 6 11 13 0 8 4 7 10 -3 6
-9 10 -10 10 -3 0 19 -17 24 -30 8z"/>
<path d="M8270 4940 c0 -5 5 -10 10 -10 6 0 10 5 10 10 0 6 -4 10 -10 10 -5 0
-10 -4 -10 -10z"/>
<path d="M11572 4917 c-7 -8 -6 -16 3 -24 10 -10 15 -10 23 0 7 8 6 16 -3 24
-10 10 -15 10 -23 0z"/>
<path d="M6229 4903 c-13 -16 -12 -17 4 -4 9 7 17 15 17 17 0 8 -8 3 -21 -13z"/>
<path d="M11635 4909 c-3 -4 6 -6 20 -5 16 2 26 -3 30 -14 3 -10 15 -26 27
-36 18 -16 17 -13 -5 20 -24 37 -61 54 -72 35z"/>
<path d="M8992 4870 c0 -19 2 -27 5 -17 2 9 2 25 0 35 -3 9 -5 1 -5 -18z"/>
<path d="M9017 4887 c-4 -10 -7 -26 -7 -35 1 -15 2 -15 11 1 6 10 9 25 7 35
-3 16 -4 15 -11 -1z"/>
<path d="M4885 4880 c-3 -5 1 -10 10 -10 9 0 13 5 10 10 -3 6 -8 10 -10 10 -2
0 -7 -4 -10 -10z"/>
<path d="M11528 4851 c-19 -27 -24 -41 -17 -52 8 -12 9 -12 7 1 -2 8 8 30 21
48 13 18 22 35 20 37 -2 2 -16 -13 -31 -34z"/>
<path d="M6190 4865 c-8 -9 -8 -15 -2 -15 12 0 26 19 19 26 -2 2 -10 -2 -17
-11z"/>
<path d="M7275 4870 c4 -6 11 -8 16 -5 14 9 11 15 -7 15 -8 0 -12 -5 -9 -10z"/>
<path d="M1577 4841 c-14 -23 -14 -28 -2 -28 8 0 13 2 10 5 -2 3 0 13 6 24 17
31 5 30 -14 -1z"/>
<path d="M8370 4858 c0 -18 18 -34 28 -24 3 4 -2 14 -11 23 -16 16 -17 16 -17
1z"/>
<path d="M7030 4850 c8 -5 24 -10 34 -10 26 0 18 6 -19 14 -22 5 -26 4 -15 -4z"/>
<path d="M7185 4849 c-15 -7 -13 -8 12 -3 17 3 34 0 38 -5 8 -15 75 -14 75 0
0 8 6 7 18 -2 15 -13 16 -12 3 3 -10 14 -18 15 -32 7 -13 -6 -25 -6 -38 1 -23
12 -49 12 -76 -1z"/>
<path d="M4880 4841 c0 -10 19 -25 25 -20 1 2 -3 10 -11 17 -8 7 -14 8 -14 3z"/>
<path d="M4930 4834 c0 -8 5 -12 10 -9 6 4 8 11 5 16 -9 14 -15 11 -15 -7z"/>
<path d="M6985 4840 c-8 -13 34 -29 60 -21 20 5 20 5 0 9 -11 2 -24 8 -29 13
-13 12 -23 11 -31 -1z"/>
<path d="M11687 4837 c-3 -8 3 -14 15 -14 16 -2 17 1 8 13 -15 17 -17 17 -23
1z"/>
<path d="M6149 4823 c-13 -16 -12 -17 4 -4 16 13 21 21 13 21 -2 0 -10 -8 -17
-17z"/>
<path d="M8972 4820 c0 -14 2 -19 5 -12 2 6 2 18 0 25 -3 6 -5 1 -5 -13z"/>
<path d="M5000 4802 c0 -12 19 -26 26 -19 2 2 -2 10 -11 17 -9 8 -15 8 -15 2z"/>
<path d="M8442 4790 c12 -19 28 -27 28 -14 0 7 -27 34 -34 34 -4 0 -1 -9 6
-20z"/>
<path d="M1541 4784 c0 -11 3 -14 6 -6 3 7 2 16 -1 19 -3 4 -6 -2 -5 -13z"/>
<path d="M4970 4791 c0 -10 39 -46 43 -40 2 2 -7 14 -20 26 -13 12 -23 19 -23
14z"/>
<path d="M6110 4785 c-8 -9 -8 -15 -2 -15 12 0 26 19 19 26 -2 2 -10 -2 -17
-11z"/>
<path d="M7385 4787 c10 -8 15 -19 11 -25 -8 -13 6 -17 17 -5 8 8 -22 43 -36
43 -6 0 -3 -6 8 -13z"/>
<path d="M11472 4779 c-7 -11 -10 -24 -8 -28 9 -14 49 -7 53 9 3 10 2 11 -4 4
-8 -12 -43 -15 -43 -4 0 3 5 11 12 18 6 6 10 14 7 16 -3 3 -10 -4 -17 -15z"/>
<path d="M1570 4781 c0 -5 -3 -18 -7 -28 -6 -16 -5 -16 10 -4 19 15 23 41 7
41 -5 0 -10 -4 -10 -9z"/>
<path d="M9001 4774 c0 -11 3 -14 6 -6 3 7 2 16 -1 19 -3 4 -6 -2 -5 -13z"/>
<path d="M5045 4770 c5 -8 8 -27 7 -43 -2 -18 1 -26 8 -22 6 4 9 13 6 20 -3 8
0 15 5 17 6 2 0 12 -12 23 -12 11 -19 13 -14 5z"/>
<path d="M11765 4760 c-4 -13 -2 -27 5 -34 10 -8 11 -5 5 14 -7 23 -7 24 11
10 18 -14 18 -14 4 5 -8 11 -15 21 -16 23 -1 2 -5 -6 -9 -18z"/>
<path d="M1510 4747 c-35 -56 -52 -87 -46 -87 3 0 17 20 32 45 14 25 30 42 35
39 5 -3 9 -1 9 5 0 20 -16 19 -30 -2z"/>
<path d="M6069 4743 c-13 -16 -12 -17 4 -4 16 13 21 21 13 21 -2 0 -10 -8 -17
-17z"/>
<path d="M7430 4756 c0 -2 8 -10 18 -17 15 -13 16 -12 3 4 -13 16 -21 21 -21
13z"/>
<path d="M8960 4755 c0 -5 5 -17 10 -25 5 -8 10 -10 10 -5 0 6 -5 17 -10 25
-5 8 -10 11 -10 5z"/>
<path d="M5080 4722 c0 -12 19 -26 26 -19 2 2 -2 10 -11 17 -9 8 -15 8 -15 2z"/>
<path d="M11800 4721 c0 -5 7 -15 17 -22 15 -13 15 -12 4 9 -12 23 -21 28 -21
13z"/>
<path d="M6030 4705 c-8 -9 -8 -15 -2 -15 12 0 26 19 19 26 -2 2 -10 -2 -17
-11z"/>
<path d="M7457 4706 c-4 -10 0 -12 14 -9 17 5 23 -3 21 -27 0 -3 8 -6 19 -6
17 0 16 3 -8 28 -30 32 -39 34 -46 14z"/>
<path d="M11426 4705 c4 -8 1 -22 -6 -30 -11 -13 -10 -14 4 -9 18 7 22 39 6
49 -6 3 -7 -1 -4 -10z"/>
<path d="M11764 4695 c-8 -20 3 -34 26 -32 23 2 24 6 6 30 -16 21 -25 22 -32
2z m26 -16 c0 -5 -4 -9 -10 -9 -5 0 -10 7 -10 16 0 8 5 12 10 9 6 -3 10 -10
10 -16z"/>
<path d="M5120 4690 c0 -5 -6 -7 -14 -4 -8 3 -17 0 -21 -6 -5 -8 2 -11 21 -8
19 2 28 -1 27 -10 -2 -6 1 -12 6 -12 18 0 18 15 -1 33 -10 9 -18 13 -18 7z"/>
<path d="M8965 4628 c0 -42 2 -75 4 -73 1 2 7 28 12 57 l8 53 -4 -60 c-3 -39
-1 -55 5 -45 12 18 12 88 0 115 l-9 20 -1 -20 c-2 -17 -3 -16 -9 5 -4 15 -7
-7 -6 -52z"/>
<path d="M11391 4677 c-13 -21 -12 -21 5 -5 10 10 16 20 13 22 -3 3 -11 -5
-18 -17z"/>
<path d="M5989 4663 c-13 -16 -12 -17 4 -4 9 7 17 15 17 17 0 8 -8 3 -21 -13z"/>
<path d="M8549 4651 c8 -5 19 -7 25 -5 6 2 23 -7 37 -20 l27 -25 -2 22 c0 13
-8 23 -16 24 -8 1 -31 4 -50 7 -23 4 -30 3 -21 -3z"/>
<path d="M7525 4640 c-3 -5 3 -10 14 -10 11 0 29 -12 40 -26 12 -15 21 -23 21
-19 0 4 7 2 15 -5 9 -7 18 -11 20 -8 5 4 -88 78 -98 78 -3 0 -9 -4 -12 -10z"/>
<path d="M1422 4620 c-6 -11 -9 -27 -5 -37 6 -14 9 -10 14 17 9 42 7 45 -9 20z"/>
<path d="M5165 4630 c3 -5 8 -10 11 -10 2 0 4 5 4 10 0 6 -5 10 -11 10 -5 0
-7 -4 -4 -10z"/>
<path d="M5950 4625 c-8 -9 -8 -15 -2 -15 12 0 26 19 19 26 -2 2 -10 -2 -17
-11z"/>
<path d="M11855 4629 c-11 -16 -1 -19 13 -3 7 8 8 14 3 14 -5 0 -13 -5 -16
-11z"/>
<path d="M5125 4620 c3 -5 10 -10 16 -10 5 0 9 5 9 10 0 6 -7 10 -16 10 -8 0
-12 -4 -9 -10z"/>
<path d="M8580 4626 c0 -2 8 -10 18 -17 15 -13 16 -12 3 4 -13 16 -21 21 -21
13z"/>
<path d="M11890 4600 c6 -11 13 -20 16 -20 2 0 0 9 -6 20 -6 11 -13 20 -16 20
-2 0 0 -9 6 -20z"/>
<path d="M7540 4601 c0 -5 7 -12 16 -15 14 -5 15 -4 4 9 -14 17 -20 19 -20 6z"/>
<path d="M11324 4596 c5 -13 2 -17 -9 -12 -8 3 -14 2 -14 -2 3 -20 -2 -32 -14
-32 -8 0 -22 -9 -32 -20 -11 -12 -13 -20 -6 -20 7 0 9 -4 6 -10 -3 -5 -2 -10
4 -10 5 0 13 5 16 10 3 6 1 10 -4 10 -6 0 -11 5 -11 10 0 6 6 10 14 10 7 0 25
11 39 24 17 16 29 20 36 13 7 -7 9 -3 8 11 0 11 -5 18 -10 15 -5 -3 -14 1 -19
8 -7 11 -8 9 -4 -5z"/>
<path d="M5909 4583 c-13 -16 -12 -17 4 -4 16 13 21 21 13 21 -2 0 -10 -8 -17
-17z"/>
<path d="M11860 4589 c0 -5 5 -7 10 -4 6 3 10 8 10 11 0 2 -4 4 -10 4 -5 0
-10 -5 -10 -11z"/>
<path d="M5200 4572 c0 -17 48 -66 75 -76 11 -4 3 7 -17 24 -21 17 -42 39 -48
48 -6 11 -9 12 -10 4z"/>
<path d="M8650 4568 c0 -2 18 -21 40 -42 22 -21 37 -31 34 -22 -5 13 -74 73
-74 64z"/>
<path d="M8690 4560 c0 -5 5 -10 10 -10 6 0 10 5 10 10 0 6 -4 10 -10 10 -5 0
-10 -4 -10 -10z"/>
<path d="M5245 4550 c3 -5 8 -10 11 -10 2 0 4 5 4 10 0 6 -5 10 -11 10 -5 0
-7 -4 -4 -10z"/>
<path d="M5870 4545 c-8 -9 -8 -15 -2 -15 12 0 26 19 19 26 -2 2 -10 -2 -17
-11z"/>
<path d="M7645 4550 c3 -5 8 -10 11 -10 2 0 4 5 4 10 0 6 -5 10 -11 10 -5 0
-7 -4 -4 -10z"/>
<path d="M11925 4540 c9 -28 32 -53 38 -43 3 5 -6 21 -20 38 -24 27 -25 28
-18 5z"/>
<path d="M7606 4534 c-9 -24 -7 -27 9 -10 17 17 19 26 6 26 -5 0 -12 -7 -15
-16z"/>
<path d="M11322 4539 c2 -7 10 -15 17 -17 8 -3 12 1 9 9 -2 7 -10 15 -17 17
-8 3 -12 -1 -9 -9z"/>
<path d="M5306 4495 c20 -25 41 -45 46 -45 5 0 8 -7 6 -16 -2 -11 5 -18 22
-21 21 -3 15 7 -40 62 -35 36 -66 65 -68 65 -2 0 13 -20 34 -45z"/>
<path d="M7670 4536 c0 -2 8 -10 18 -17 15 -13 16 -12 3 4 -13 16 -21 21 -21
13z"/>
<path d="M5200 4521 c0 -10 19 -25 25 -20 1 2 -3 10 -11 17 -8 7 -14 8 -14 3z"/>
<path d="M8981 4521 c-12 -8 -12 -12 2 -26 16 -15 17 -15 17 9 0 29 0 29 -19
17z"/>
<path d="M5829 4503 c-13 -16 -12 -17 4 -4 16 13 21 21 13 21 -2 0 -10 -8 -17
-17z"/>
<path d="M11212 4479 c-19 -30 -8 -34 12 -4 9 14 13 25 9 25 -5 0 -14 -9 -21
-21z"/>
<path d="M7722 4478 c5 -15 28 -23 28 -10 0 5 -7 13 -16 16 -10 4 -14 1 -12
-6z"/>
<path d="M8772 4477 c-8 -10 -6 -13 7 -13 11 0 17 6 14 13 -3 7 -6 13 -8 13
-1 0 -7 -6 -13 -13z"/>
<path d="M5790 4465 c-8 -9 -8 -15 -2 -15 12 0 26 19 19 26 -2 2 -10 -2 -17
-11z"/>
<path d="M11970 4466 c0 -9 7 -16 16 -16 11 0 14 -5 10 -17 -4 -10 -4 -14 0
-10 4 4 14 1 23 -6 8 -6 5 2 -7 20 -28 40 -42 49 -42 29z"/>
<path d="M5290 4464 c0 -10 31 -36 37 -31 3 3 -2 13 -10 22 -16 15 -27 19 -27
9z"/>
<path d="M11240 4455 c-19 -23 -7 -39 13 -17 10 11 14 23 9 26 -5 3 -15 -1
-22 -9z"/>
<path d="M7760 4450 c0 -5 5 -10 11 -10 5 0 7 5 4 10 -3 6 -8 10 -11 10 -2 0
-4 -4 -4 -10z"/>
<path d="M11930 4444 c0 -8 5 -12 10 -9 6 3 10 10 10 16 0 5 -4 9 -10 9 -5 0
-10 -7 -10 -16z"/>
<path d="M1300 4441 c0 -10 19 -25 25 -20 1 2 -3 10 -11 17 -8 7 -14 8 -14 3z"/>
<path d="M8977 4429 c-4 -13 -7 -36 -7 -51 0 -15 -7 -31 -16 -36 -14 -8 -14
-10 1 -22 13 -11 15 -10 9 4 -3 9 -1 16 5 16 6 0 11 15 11 33 0 24 3 28 10 17
8 -12 10 -12 9 5 0 11 -4 29 -8 39 -7 18 -8 18 -14 -5z"/>
<path d="M11154 4436 c-9 -10 -4 -12 21 -12 25 1 31 4 23 14 -13 15 -30 15
-44 -2z"/>
<path d="M5749 4423 c-13 -16 -12 -17 4 -4 16 13 21 21 13 21 -2 0 -10 -8 -17
-17z"/>
<path d="M7768 4403 c2 -13 10 -23 17 -23 8 0 17 -9 20 -20 3 -11 11 -20 16
-20 17 0 9 22 -16 42 -18 14 -23 24 -16 32 7 8 5 12 -8 12 -13 0 -16 -6 -13
-23z"/>
<path d="M2298 4413 c7 -3 16 -2 19 1 4 3 -2 6 -13 5 -11 0 -14 -3 -6 -6z"/>
<path d="M8821 4413 c0 -5 14 -19 32 -33 l32 -24 -20 24 c-18 21 -18 23 -2 17
11 -4 16 -3 12 4 -4 6 -13 8 -21 5 -8 -3 -14 -1 -14 4 0 6 -4 10 -10 10 -5 0
-10 -3 -9 -7z"/>
<path d="M9011 4404 c0 -11 3 -14 6 -6 3 7 2 16 -1 19 -3 4 -6 -2 -5 -13z"/>
<path d="M7810 4400 c0 -5 5 -10 11 -10 14 0 41 -28 36 -37 -3 -5 6 -9 19 -9
21 -2 19 2 -17 32 -44 37 -49 39 -49 24z"/>
<path d="M5430 4365 c19 -19 38 -35 43 -35 6 0 -6 16 -26 35 -20 19 -39 35
-43 35 -5 0 7 -16 26 -35z"/>
<path d="M5710 4385 c-8 -9 -8 -15 -2 -15 12 0 26 19 19 26 -2 2 -10 -2 -17
-11z"/>
<path d="M11078 4370 c-18 -16 -28 -30 -22 -30 5 0 23 14 39 30 37 39 25 39
-17 0z"/>
<path d="M12020 4390 c-12 -8 -10 -10 8 -10 24 0 28 -10 10 -28 -9 -9 -8 -12
5 -12 10 0 17 8 17 19 0 26 -22 42 -40 31z"/>
<path d="M1253 4378 c-20 -26 -26 -41 -15 -34 12 7 36 46 29 46 -3 0 -9 -6
-14 -12z"/>
<path d="M2300 4370 c-21 -7 -21 -8 -5 -9 11 0 27 4 35 9 18 11 5 11 -30 0z"/>
<path d="M1266 4354 c-8 -20 -8 -24 2 -24 4 0 8 9 9 20 2 24 -3 26 -11 4z"/>
<path d="M5400 4360 c0 -5 5 -10 11 -10 5 0 7 5 4 10 -3 6 -8 10 -11 10 -2 0
-4 -4 -4 -10z"/>
<path d="M7760 4360 c0 -5 5 -10 11 -10 5 0 7 5 4 10 -3 6 -8 10 -11 10 -2 0
-4 -4 -4 -10z"/>
<path d="M8991 4354 c0 -11 3 -14 6 -6 3 7 2 16 -1 19 -3 4 -6 -2 -5 -13z"/>
<path d="M9017 4351 c-3 -11 2 -26 10 -32 12 -10 13 -8 9 16 -7 36 -12 41 -19
16z"/>
<path d="M11102 4354 c-7 -8 -8 -14 -3 -14 10 0 25 19 20 25 -2 1 -10 -3 -17
-11z"/>
<path d="M5669 4343 c-13 -16 -12 -17 4 -4 9 7 17 15 17 17 0 8 -8 3 -21 -13z"/>
<path d="M2018 4333 c7 -3 16 -2 19 1 4 3 -2 6 -13 5 -11 0 -14 -3 -6 -6z"/>
<path d="M8901 4338 c2 -2 25 -23 51 -47 36 -34 46 -39 41 -23 -3 12 -11 22
-17 22 -7 0 -23 11 -36 25 -13 14 -28 25 -33 25 -6 0 -8 -1 -6 -2z"/>
<path d="M1209 4313 c-13 -16 -12 -17 4 -4 9 7 17 15 17 17 0 8 -8 3 -21 -13z"/>
<path d="M2545 4320 c3 -5 8 -10 11 -10 2 0 4 5 4 10 0 6 -5 10 -11 10 -5 0
-7 -4 -4 -10z"/>
<path d="M2605 4320 c-13 -5 -14 -9 -5 -9 8 0 24 4 35 9 13 5 14 9 5 9 -8 0
-24 -4 -35 -9z"/>
<path d="M8980 4322 c0 -10 33 -42 43 -42 4 0 7 5 7 10 0 6 -7 10 -15 10 -8 0
-15 7 -15 15 0 8 -4 15 -10 15 -5 0 -10 -4 -10 -8z"/>
<path d="M2046 4311 c-3 -4 6 -6 19 -3 14 2 25 6 25 8 0 8 -39 4 -44 -5z"/>
<path d="M2683 4313 c9 -2 23 -2 30 0 6 3 -1 5 -18 5 -16 0 -22 -2 -12 -5z"/>
<path d="M5485 4310 c3 -5 8 -10 11 -10 2 0 4 5 4 10 0 6 -5 10 -11 10 -5 0
-7 -4 -4 -10z"/>
<path d="M5630 4305 c-8 -9 -8 -15 -2 -15 12 0 26 19 19 26 -2 2 -10 -2 -17
-11z"/>
<path d="M5666 4303 c-6 -14 -5 -15 5 -6 7 7 10 15 7 18 -3 3 -9 -2 -12 -12z"/>
<path d="M7935 4300 c18 -21 18 -23 2 -17 -11 4 -16 3 -12 -4 4 -6 13 -8 21
-5 8 3 14 1 14 -4 0 -6 5 -10 10 -10 18 0 9 15 -23 40 l-32 24 20 -24z"/>
<path d="M11022 4306 c7 -8 15 -12 17 -11 5 6 -10 25 -20 25 -5 0 -4 -6 3 -14z"/>
<path d="M12094 4305 c3 -8 9 -23 13 -32 5 -13 3 -15 -12 -10 -15 6 -16 5 -5
-8 10 -12 10 -18 0 -30 -11 -13 -10 -14 4 -9 9 3 16 15 16 25 0 25 7 24 31 -3
11 -13 6 1 -11 30 -30 49 -49 69 -36 37z"/>
<path d="M1250 4306 c0 -2 7 -9 15 -16 12 -10 15 -10 15 4 0 9 -7 16 -15 16
-8 0 -15 -2 -15 -4z"/>
<path d="M5447 4296 c-4 -11 -1 -13 10 -9 12 5 15 2 10 -10 -4 -11 -2 -14 9
-10 18 7 18 11 0 29 -18 18 -22 18 -29 0z"/>
<path d="M5510 4293 c0 -13 29 -38 35 -31 3 3 -4 13 -15 23 -11 10 -20 13 -20
8z"/>
<path d="M10988 4293 c7 -3 16 -2 19 1 4 3 -2 6 -13 5 -11 0 -14 -3 -6 -6z"/>
<path d="M1181 4267 c-13 -21 -12 -21 5 -5 10 10 16 20 13 22 -3 3 -11 -5 -18
-17z"/>
<path d="M1220 4274 c0 -8 5 -12 10 -9 6 3 10 10 10 16 0 5 -4 9 -10 9 -5 0
-10 -7 -10 -16z"/>
<path d="M2675 4280 c3 -5 16 -10 28 -10 18 0 19 2 7 10 -20 13 -43 13 -35 0z"/>
<path d="M5630 4270 c-9 -6 -10 -10 -3 -10 6 0 15 5 18 10 8 12 4 12 -15 0z"/>
<path d="M10944 4264 c-18 -15 -18 -15 3 -5 12 6 30 8 40 5 15 -5 15 -4 3 5
-20 14 -23 14 -46 -5z"/>
<path d="M9060 4261 c0 -7 -6 -11 -14 -8 -11 4 -13 1 -9 -11 6 -15 5 -15 -10
-3 -9 7 -17 10 -17 5 0 -5 11 -17 25 -27 17 -12 26 -14 31 -5 4 7 3 8 -4 4
-14 -9 -15 4 -2 24 8 12 10 12 10 1 0 -8 3 -12 6 -8 3 3 1 14 -5 24 -7 11 -11
13 -11 4z"/>
<path d="M1883 4220 c1 -31 -2 -44 -10 -42 -7 1 -13 -5 -13 -13 0 -24 14 -18
33 15 16 27 16 32 3 57 l-15 28 2 -45z"/>
<path d="M1910 4252 c0 -4 9 -8 19 -8 11 0 17 4 15 8 -3 4 -12 8 -20 8 -8 0
-14 -4 -14 -8z"/>
<path d="M2830 4251 c32 -6 33 -8 13 -15 -13 -4 -33 -4 -45 -1 -22 7 -22 6 2
-11 26 -19 80 -28 80 -13 0 5 -12 7 -27 3 l-28 -6 28 20 c24 16 26 20 12 26
-9 3 -29 5 -43 5 -23 -1 -22 -3 8 -8z"/>
<path d="M8002 4216 c3 -31 5 -33 19 -20 12 11 18 11 29 1 12 -10 12 -9 1 5
-7 10 -19 14 -28 11 -12 -5 -15 -2 -10 10 3 9 2 19 -3 22 -6 4 -9 -8 -8 -29z"/>
<path d="M10900 4229 c0 -5 5 -7 10 -4 6 3 10 8 10 11 0 2 -4 4 -10 4 -5 0
-10 -5 -10 -11z"/>
<path d="M1120 4184 c-38 -53 -47 -90 -21 -90 10 0 18 9 19 21 1 14 -1 16 -7
6 -5 -8 -11 -9 -15 -3 -3 6 1 17 9 25 8 9 15 20 15 26 0 5 11 18 25 29 25 20
32 32 17 32 -5 0 -24 -21 -42 -46z"/>
<path d="M1840 4222 c0 -5 7 -13 16 -16 10 -4 14 -1 12 6 -5 15 -28 23 -28 10z"/>
<path d="M10940 4215 c7 -9 15 -13 17 -11 7 7 -7 26 -19 26 -6 0 -6 -6 2 -15z"/>
<path d="M9076 4203 c-6 -14 -5 -15 5 -6 7 7 10 15 7 18 -3 3 -9 -2 -12 -12z"/>
<path d="M10850 4201 l-24 -19 42 2 c23 1 45 6 49 10 4 4 -4 5 -20 1 -27 -7
-39 8 -14 18 6 3 8 6 2 6 -5 0 -21 -8 -35 -18z"/>
<path d="M12125 4200 c3 -5 8 -10 11 -10 2 0 4 5 4 10 0 6 -5 10 -11 10 -5 0
-7 -4 -4 -10z"/>
<path d="M12169 4204 c-6 -52 -6 -75 2 -63 5 8 6 23 2 34 -5 18 -4 19 13 5 18
-14 18 -14 4 5 -8 11 -16 22 -17 24 -2 2 -3 0 -4 -5z"/>
<path d="M1170 4190 c0 -5 5 -10 11 -10 5 0 7 5 4 10 -3 6 -8 10 -11 10 -2 0
-4 -4 -4 -10z"/>
<path d="M8080 4175 c8 -11 24 -28 35 -38 20 -18 20 -18 -2 -12 -12 3 -24 1
-29 -7 -4 -7 -4 -10 0 -6 5 4 18 3 30 -2 35 -13 28 14 -13 52 -19 18 -29 24
-21 13z"/>
<path d="M3001 4164 c-7 -8 -10 -18 -6 -22 4 -4 10 -1 12 6 4 10 8 10 19 1 10
-8 14 -8 14 0 0 6 -5 11 -11 11 -5 0 -7 5 -4 10 10 16 -8 11 -24 -6z"/>
<path d="M9106 4172 c-3 -5 14 -26 37 -48 40 -38 41 -38 12 -4 -17 19 -33 36
-38 38 -4 2 -5 8 -1 13 3 5 3 9 0 9 -3 0 -7 -4 -10 -8z"/>
<path d="M2905 4160 c3 -5 11 -10 16 -10 6 0 7 5 4 10 -3 6 -11 10 -16 10 -6
0 -7 -4 -4 -10z"/>
<path d="M10776 4151 c-3 -5 -31 -23 -62 -41 -31 -17 -54 -34 -51 -36 5 -5 45
14 57 26 10 10 45 31 63 36 9 4 17 10 17 15 0 12 -17 12 -24 0z"/>
<path d="M1846 4123 c-6 -14 -5 -15 5 -6 7 7 10 15 7 18 -3 3 -9 -2 -12 -12z"/>
<path d="M2955 4130 c3 -5 8 -10 11 -10 2 0 4 5 4 10 0 6 -5 10 -11 10 -5 0
-7 -4 -4 -10z"/>
<path d="M2986 4121 c-4 -5 13 -23 36 -39 24 -17 53 -38 65 -48 63 -54 66 -57
60 -41 -3 9 -1 18 6 21 7 3 3 4 -9 1 -14 -4 -27 2 -40 20 -10 14 -23 25 -28
25 -18 0 -45 32 -39 46 3 8 1 14 -5 14 -6 0 -17 3 -25 6 -8 3 -18 1 -21 -5z
m41 -17 c-3 -3 -12 -4 -19 -1 -8 3 -5 6 6 6 11 1 17 -2 13 -5z"/>
<path d="M12230 4123 c0 -7 5 -15 11 -18 6 -4 8 -14 5 -22 -3 -8 -2 -11 3 -8
5 3 13 0 17 -6 3 -6 1 -15 -5 -19 -9 -5 -9 -10 1 -18 23 -19 17 29 -9 68 -13
19 -23 29 -23 23z"/>
<path d="M8160 4105 c21 -29 51 -58 56 -53 2 2 -13 20 -33 39 -21 19 -31 25
-23 14z"/>
<path d="M1768 4075 c2 -14 8 -28 13 -31 15 -9 10 33 -5 45 -11 9 -12 6 -8
-14z"/>
<path d="M3078 4084 c22 -17 29 -17 35 -1 3 8 -6 12 -24 13 -26 1 -27 0 -11
-12z"/>
<path d="M1055 4080 c-3 -5 -1 -10 4 -10 6 0 11 5 11 10 0 6 -2 10 -4 10 -3 0
-8 -4 -11 -10z"/>
<path d="M1811 4064 c0 -11 3 -14 6 -6 3 7 2 16 -1 19 -3 4 -6 -2 -5 -13z"/>
<path d="M10705 4070 c-3 -5 -1 -10 4 -10 6 0 11 5 11 10 0 6 -2 10 -4 10 -3
0 -8 -4 -11 -10z"/>
<path d="M1105 4060 c3 -5 8 -10 11 -10 2 0 4 5 4 10 0 6 -5 10 -11 10 -5 0
-7 -4 -4 -10z"/>
<path d="M10600 4054 c-15 -9 -18 -13 -6 -9 11 3 28 -2 40 -12 21 -18 21 -18
3 3 -9 11 -14 24 -10 27 10 11 0 7 -27 -9z"/>
<path d="M1005 4017 c-15 -23 -35 -51 -45 -62 -9 -11 -27 -38 -39 -60 -21 -36
-21 -38 -2 -15 11 14 21 29 21 33 0 5 4 6 9 3 5 -3 8 2 7 12 0 9 5 16 12 15 6
-2 12 4 12 12 0 8 5 15 10 15 6 0 10 6 10 13 0 7 7 23 16 36 13 18 18 20 25
10 7 -11 9 -10 9 3 0 33 -18 27 -45 -15z"/>
<path d="M8167 4029 c7 -7 15 -10 18 -7 3 3 -2 9 -12 12 -14 6 -15 5 -6 -5z"/>
<path d="M10688 4033 c6 -2 18 -2 25 0 6 3 1 5 -13 5 -14 0 -19 -2 -12 -5z"/>
<path d="M1777 3909 c2 -67 6 -125 8 -128 11 -10 13 6 6 44 -4 22 -4 56 0 75
4 19 4 36 0 38 -5 1 -6 13 -4 25 2 12 0 33 -5 46 -5 15 -7 -20 -5 -100z"/>
<path d="M8246 4017 c2 -7 19 -21 37 -31 l32 -18 -34 31 c-37 34 -43 37 -35
18z"/>
<path d="M10588 4023 c6 -2 18 -2 25 0 6 3 1 5 -13 5 -14 0 -19 -2 -12 -5z"/>
<path d="M3180 4010 c-13 -8 -13 -11 2 -26 15 -15 16 -14 15 10 -1 14 -2 26
-2 26 0 0 -7 -5 -15 -10z"/>
<path d="M10500 4000 c-13 -8 -12 -10 3 -10 9 0 17 5 17 10 0 12 -1 12 -20 0z"/>
<path d="M10445 3979 c-17 -8 -15 -8 8 -4 15 3 27 1 27 -5 0 -5 -5 -10 -12
-10 -6 0 -9 -2 -7 -5 3 -2 23 2 44 10 35 12 36 14 13 15 -14 0 -32 2 -40 4 -7
3 -22 0 -33 -5z"/>
<path d="M12325 3954 c3 -52 3 -51 22 -58 16 -6 16 -6 0 12 -9 10 -17 25 -17
33 0 12 2 12 9 0 5 -7 11 -9 14 -4 3 5 -3 19 -12 32 l-18 24 2 -39z"/>
<path d="M3172 3960 c7 -11 17 -20 22 -20 5 0 1 9 -9 20 -10 11 -20 20 -22 20
-2 0 2 -9 9 -20z"/>
<path d="M1005 3959 c-4 -6 -5 -12 -2 -15 2 -3 7 2 10 11 7 17 1 20 -8 4z"/>
<path d="M9335 3950 c10 -11 24 -20 31 -20 7 0 14 -5 16 -12 3 -7 7 -8 10 -2
4 5 -12 19 -34 32 -38 21 -40 21 -23 2z"/>
<path d="M10545 3961 c-3 -5 -1 -12 5 -16 5 -3 10 1 10 9 0 18 -6 21 -15 7z"/>
<path d="M8315 3950 c-4 -6 -3 -9 2 -8 5 2 29 -14 53 -34 34 -30 39 -38 24
-39 -14 0 -15 -2 -4 -6 8 -3 19 -11 23 -17 5 -7 6 -3 3 8 -5 14 -2 17 11 12
15 -5 14 -3 -2 9 -11 9 -33 28 -50 43 -40 38 -52 44 -60 32z"/>
<path d="M10365 3950 c-14 -5 -6 -8 28 -8 27 0 47 1 45 2 -10 9 -56 13 -73 6z"/>
<path d="M3263 3933 c-15 -5 -17 -23 -4 -23 5 0 11 7 15 15 3 8 4 15 3 14 -1
0 -8 -3 -14 -6z"/>
<path d="M12360 3922 c0 -5 7 -15 15 -22 8 -7 15 -18 15 -25 0 -7 7 -16 15
-19 14 -5 13 -1 -2 25 -21 35 -43 57 -43 41z"/>
<path d="M3220 3913 c0 -10 40 -36 46 -30 3 2 -7 12 -21 21 -14 9 -25 13 -25
9z"/>
<path d="M9407 3906 c-4 -10 -1 -13 8 -9 8 3 12 9 9 14 -7 12 -11 11 -17 -5z"/>
<path d="M10255 3910 l-20 -9 20 0 c11 0 27 4 35 9 13 9 13 10 0 9 -8 0 -24
-4 -35 -9z"/>
<path d="M8330 3900 c0 -5 5 -10 10 -10 6 0 10 5 10 10 0 6 -4 10 -10 10 -5 0
-10 -4 -10 -10z"/>
<path d="M937 3876 c-4 -10 -1 -13 9 -9 7 3 14 9 14 14 0 14 -17 10 -23 -5z"/>
<path d="M9420 3881 c0 -5 8 -15 17 -22 12 -10 15 -11 9 -1 -6 10 -1 11 21 7
l28 -7 -29 16 c-32 18 -46 20 -46 7z"/>
<path d="M10145 3880 c-3 -5 -1 -10 4 -10 6 0 11 5 11 10 0 6 -2 10 -4 10 -3
0 -8 -4 -11 -10z"/>
<path d="M10200 3883 c8 -2 25 -9 37 -15 13 -6 26 -8 30 -5 3 4 -1 7 -10 7 -9
0 -17 5 -17 10 0 6 -12 10 -27 9 -16 0 -21 -3 -13 -6z"/>
<path d="M10295 3870 c3 -5 10 -10 16 -10 5 0 9 5 9 10 0 6 -7 10 -16 10 -8 0
-12 -4 -9 -10z"/>
<path d="M12360 3870 c0 -5 5 -10 11 -10 5 0 7 5 4 10 -3 6 -8 10 -11 10 -2 0
-4 -4 -4 -10z"/>
<path d="M3270 3865 c0 -4 6 -13 14 -21 8 -7 24 -26 35 -40 12 -15 25 -24 29
-19 4 4 1 10 -5 12 -7 3 -13 10 -14 16 0 12 -59 64 -59 52z"/>
<path d="M10198 3863 c7 -3 16 -2 19 1 4 3 -2 6 -13 5 -11 0 -14 -3 -6 -6z"/>
<path d="M3348 3833 c5 -21 7 -23 10 -9 2 10 0 22 -6 28 -6 6 -7 0 -4 -19z"/>
<path d="M9500 3845 c-10 -12 -16 -13 -29 -3 -14 11 -14 11 -3 -4 8 -10 20
-14 29 -11 12 5 15 2 10 -10 -3 -9 -2 -19 3 -22 6 -4 9 9 8 29 -2 20 -4 36 -4
36 -1 0 -7 -7 -14 -15z"/>
<path d="M8446 3835 c4 -8 12 -15 19 -15 7 0 18 -7 25 -15 7 -9 15 -13 18 -10
6 5 -18 27 -50 45 -14 8 -16 7 -12 -5z"/>
<path d="M9978 3843 c7 -3 16 -2 19 1 4 3 -2 6 -13 5 -11 0 -14 -3 -6 -6z"/>
<path d="M9733 3833 c20 -2 54 -2 75 0 20 2 3 4 -38 4 -41 0 -58 -2 -37 -4z"/>
<path d="M9868 3833 c12 -2 30 -2 40 0 9 3 -1 5 -23 4 -22 0 -30 -2 -17 -4z"/>
<path d="M12415 3829 c-11 -17 1 -21 15 -4 8 9 8 15 2 15 -6 0 -14 -5 -17 -11z"/>
<path d="M865 3819 c-4 -6 -5 -12 -2 -15 2 -3 7 2 10 11 7 17 1 20 -8 4z"/>
<path d="M8420 3812 c0 -4 9 -13 20 -20 11 -7 20 -9 20 -4 0 4 -9 13 -20 20
-11 7 -20 9 -20 4z"/>
<path d="M9933 3813 c9 -2 25 -2 35 0 9 3 1 5 -18 5 -19 0 -27 -2 -17 -5z"/>
<path d="M12426 3799 c-11 -11 -14 -19 -8 -19 6 0 14 5 17 10 4 6 11 8 16 5 5
-4 9 -2 9 4 0 19 -15 18 -34 0z"/>
<path d="M9710 3800 c20 -13 50 -13 50 0 0 6 -15 10 -32 10 -25 0 -29 -3 -18
-10z"/>
<path d="M1762 3780 c0 -14 2 -19 5 -12 2 6 2 18 0 25 -3 6 -5 1 -5 -13z"/>
<path d="M9978 3793 c7 -3 16 -2 19 1 4 3 -2 6 -13 5 -11 0 -14 -3 -6 -6z"/>
<path d="M835 3780 c-3 -5 -1 -10 4 -10 6 0 11 5 11 10 0 6 -2 10 -4 10 -3 0
-8 -4 -11 -10z"/>
<path d="M872 3770 c0 -14 2 -19 5 -12 2 6 2 18 0 25 -3 6 -5 1 -5 -13z"/>
<path d="M8487 3779 c7 -7 15 -10 18 -7 3 3 -2 9 -12 12 -14 6 -15 5 -6 -5z"/>
<path d="M8527 3773 c3 -13 11 -23 17 -23 7 0 23 -11 36 -25 13 -14 27 -25 32
-25 5 0 -8 15 -29 33 -21 17 -43 39 -50 47 -10 13 -11 11 -6 -7z"/>
<path d="M9663 3783 c9 -2 23 -2 30 0 6 3 -1 5 -18 5 -16 0 -22 -2 -12 -5z"/>
<path d="M3415 3755 c0 -14 3 -25 8 -25 4 0 5 -15 2 -32 -3 -21 -2 -28 3 -20
5 8 8 23 7 35 -1 12 -3 32 -4 45 -1 30 -16 28 -16 -3z"/>
<path d="M4040 3770 c-21 -13 36 -33 72 -24 34 7 33 9 -7 18 -22 5 -26 4 -15
-4 13 -8 13 -10 -2 -10 -9 0 -21 7 -25 15 -6 9 -13 11 -23 5z"/>
<path d="M4118 3773 c7 -3 16 -2 19 1 4 3 -2 6 -13 5 -11 0 -14 -3 -6 -6z"/>
<path d="M4165 3770 c-25 -11 1 -11 35 0 20 6 21 8 5 8 -11 0 -29 -3 -40 -8z"/>
<path d="M4438 3773 c7 -3 16 -2 19 1 4 3 -2 6 -13 5 -11 0 -14 -3 -6 -6z"/>
<path d="M4485 3771 c-17 -7 -16 -8 9 -15 15 -4 37 -4 48 0 17 5 20 3 14 -12
-5 -15 -4 -16 5 -7 18 18 1 34 -28 27 -18 -5 -24 -3 -19 5 8 12 0 13 -29 2z"/>
<path d="M9541 3773 c0 -5 14 -19 32 -33 l32 -24 -20 24 c-18 21 -18 23 -2 17
11 -4 16 -3 12 4 -4 6 -13 8 -21 5 -8 -3 -14 -1 -14 4 0 6 -4 10 -10 10 -5 0
-10 -3 -9 -7z"/>
<path d="M821 3744 c0 -11 3 -14 6 -6 3 7 2 16 -1 19 -3 4 -6 -2 -5 -13z"/>
<path d="M1791 3730 c-2 -29 -4 -31 -11 -15 -6 15 -7 11 -7 -18 l1 -38 14 26
c7 14 11 38 9 53 -3 23 -4 22 -6 -8z"/>
<path d="M3386 3745 c-9 -26 -7 -32 5 -12 6 10 9 21 6 23 -2 3 -7 -2 -11 -11z"/>
<path d="M4605 3750 c3 -5 13 -10 21 -10 8 0 12 5 9 10 -3 6 -13 10 -21 10 -8
0 -12 -4 -9 -10z"/>
<path d="M8490 3750 c0 -5 6 -10 14 -10 8 0 17 -7 20 -16 3 -8 11 -12 16 -9 6
4 19 1 28 -7 15 -12 16 -11 3 5 -7 9 -19 17 -26 17 -7 0 -18 7 -25 15 -14 17
-30 20 -30 5z"/>
<path d="M12484 3732 c-1 -15 1 -21 3 -14 4 10 10 9 26 -5 18 -15 17 -13 -3
15 -13 17 -24 32 -24 32 -1 0 -2 -12 -2 -28z"/>
<path d="M4000 3739 c0 -5 5 -7 10 -4 6 3 10 8 10 11 0 2 -4 4 -10 4 -5 0 -10
-5 -10 -11z"/>
<path d="M857 3733 c-12 -11 -8 -30 7 -30 8 0 11 8 8 19 -5 20 -6 21 -15 11z"/>
<path d="M4025 3730 c-3 -5 1 -10 9 -10 8 0 18 5 21 10 3 6 -1 10 -9 10 -8 0
-18 -4 -21 -10z"/>
<path d="M780 3692 c-38 -55 -41 -62 -36 -62 3 0 17 18 32 39 18 27 31 38 42
34 10 -3 13 -1 7 4 -5 4 -12 11 -15 15 -3 4 -16 -10 -30 -30z"/>
<path d="M4580 3720 c0 -5 7 -10 16 -10 8 0 12 5 9 10 -3 6 -10 10 -16 10 -5
0 -9 -4 -9 -10z"/>
<path d="M8480 3721 c0 -5 7 -11 15 -15 8 -3 15 -1 15 3 0 5 -7 11 -15 15 -8
3 -15 1 -15 -3z"/>
<path d="M3870 3690 c20 -13 33 -13 25 0 -3 6 -14 10 -23 10 -15 0 -15 -2 -2
-10z"/>
<path d="M3917 3679 c-15 -12 -39 -22 -52 -23 -14 0 -25 -4 -25 -8 0 -16 37
-6 85 22 28 16 43 30 35 30 -8 -1 -28 -10 -43 -21z"/>
<path d="M4610 3696 c0 -2 8 -10 18 -17 15 -13 16 -12 3 4 -13 16 -21 21 -21
13z"/>
<path d="M9661 3664 c43 -36 49 -39 49 -26 0 4 -10 12 -22 17 -13 6 -23 17
-22 25 1 9 -9 16 -22 16 -20 2 -18 -2 17 -32z"/>
<path d="M9690 3689 c0 -6 11 -20 25 -31 18 -14 23 -24 16 -32 -7 -8 -5 -12 8
-12 13 0 16 6 13 23 -2 13 -10 23 -17 23 -8 0 -17 9 -20 20 -7 21 -25 28 -25
9z"/>
<path d="M1801 3683 c-1 -6 -4 -20 -7 -30 -5 -17 -5 -17 6 0 6 10 9 23 6 30
-3 9 -5 9 -5 0z"/>
<path d="M9745 3680 c3 -5 8 -10 11 -10 2 0 4 5 4 10 0 6 -5 10 -11 10 -5 0
-7 -4 -4 -10z"/>
<path d="M8664 3653 c16 -18 32 -31 34 -28 3 3 3 6 1 8 -2 1 -17 13 -34 27
l-30 25 29 -32z"/>
<path d="M12530 3671 c0 -5 7 -12 16 -15 9 -4 14 -13 10 -21 -3 -8 0 -14 7
-12 7 1 12 -9 12 -23 0 -19 5 -24 18 -22 15 3 17 -1 12 -19 -5 -14 -4 -19 4
-15 18 11 13 24 -29 81 -40 54 -50 63 -50 46z"/>
<path d="M4650 3661 c0 -6 5 -13 10 -16 6 -3 10 1 10 9 0 9 -4 16 -10 16 -5 0
-10 -4 -10 -9z"/>
<path d="M776 3635 c-3 -8 -1 -15 4 -15 6 0 10 7 10 15 0 8 -2 15 -4 15 -2 0
-6 -7 -10 -15z"/>
<path d="M12490 3636 c0 -9 5 -16 10 -16 6 0 10 4 10 9 0 6 -4 13 -10 16 -5 3
-10 -1 -10 -9z"/>
<path d="M4690 3591 c10 -20 20 -43 23 -51 4 -11 6 -11 6 3 1 10 -6 31 -14 46
-8 16 -12 31 -10 33 3 3 -1 5 -9 5 -11 0 -10 -7 4 -36z"/>
<path d="M3460 3614 c0 -6 7 -19 15 -30 8 -10 14 -14 14 -9 0 6 -6 19 -14 29
-8 11 -15 15 -15 10z"/>
<path d="M3750 3609 c0 -5 5 -7 10 -4 6 3 10 8 10 11 0 2 -4 4 -10 4 -5 0 -10
-5 -10 -11z"/>
<path d="M3771 3589 c-53 -35 -57 -39 -45 -39 5 0 31 16 58 35 60 43 49 47
-13 4z"/>
<path d="M3710 3600 c0 -5 7 -10 15 -10 8 0 15 5 15 10 0 6 -7 10 -15 10 -8 0
-15 -4 -15 -10z"/>
<path d="M692 3571 c-13 -18 -19 -37 -15 -47 4 -12 3 -15 -5 -10 -18 11 -15
-9 3 -24 24 -20 43 3 21 25 -17 18 -12 39 8 32 8 -3 13 5 13 24 0 16 -1 29 -2
29 -1 0 -11 -13 -23 -29z"/>
<path d="M9745 3590 c3 -5 8 -10 11 -10 2 0 4 5 4 10 0 6 -5 10 -11 10 -5 0
-7 -4 -4 -10z"/>
<path d="M8727 3563 c3 -7 6 -13 8 -13 1 0 7 6 13 13 8 10 6 13 -7 13 -11 0
-17 -6 -14 -13z"/>
<path d="M9770 3572 c0 -5 7 -13 16 -16 10 -4 14 -1 12 6 -5 15 -28 23 -28 10z"/>
<path d="M12560 3561 c0 -6 4 -13 10 -16 6 -3 7 1 4 9 -7 18 -14 21 -14 7z"/>
<path d="M3674 3542 c-9 -5 -9 -10 0 -18 9 -9 17 -8 32 3 18 14 18 15 -5 8
-16 -5 -21 -4 -17 4 8 13 6 14 -10 3z"/>
<path d="M8796 3536 c5 -13 74 -73 74 -64 0 2 -18 21 -40 42 -22 21 -37 31
-34 22z"/>
<path d="M1851 3530 c0 -8 4 -22 9 -30 12 -18 12 -2 0 25 -6 13 -9 15 -9 5z"/>
<path d="M3562 3523 c3 -19 48 -32 48 -14 0 6 -7 11 -15 11 -8 0 -15 5 -15 10
0 6 -5 10 -11 10 -6 0 -9 -8 -7 -17z"/>
<path d="M9890 3536 c0 -2 7 -7 16 -10 8 -3 12 -2 9 4 -6 10 -25 14 -25 6z"/>
<path d="M9861 3488 c77 -75 118 -103 131 -90 9 9 7 12 -9 12 -12 0 -31 12
-43 28 -12 15 -25 27 -29 27 -4 0 -27 15 -51 34 l-45 34 46 -45z"/>
<path d="M3516 3506 c3 -8 12 -17 20 -20 9 -4 13 -13 10 -23 -3 -10 -2 -24 3
-31 6 -10 10 -8 14 8 8 29 0 46 -29 64 -19 13 -22 13 -18 2z"/>
<path d="M3643 3503 c-7 -3 -13 -12 -13 -21 0 -15 2 -15 17 1 18 18 16 27 -4
20z"/>
<path d="M627 3476 c-14 -20 -14 -26 -2 -42 8 -11 15 -14 15 -7 0 6 -5 15 -10
18 -6 4 -8 11 -4 16 3 5 9 7 13 5 3 -3 7 4 7 15 0 24 0 24 -19 -5z"/>
<path d="M12645 3480 c2 -14 5 -33 5 -43 0 -16 2 -17 15 -3 8 8 15 25 14 38 0
22 -1 22 -9 3 -8 -19 -8 -19 -19 5 l-12 25 6 -25z"/>
<path d="M8810 3480 c0 -5 5 -10 10 -10 6 0 10 5 10 10 0 6 -4 10 -10 10 -5 0
-10 -4 -10 -10z"/>
<path d="M1875 3464 c12 -28 9 -65 -7 -75 -7 -5 -8 -9 -3 -9 27 0 37 19 31 54
-4 19 -12 38 -18 42 -8 5 -9 1 -3 -12z"/>
<path d="M1844 3441 c1 -17 5 -33 8 -36 3 -3 5 8 3 25 -1 17 -5 33 -8 36 -3 3
-4 -8 -3 -25z"/>
<path d="M3591 3465 c-2 -24 14 -33 29 -17 13 14 12 15 -2 9 -9 -3 -19 -1 -22
6 -2 7 -5 8 -5 2z"/>
<path d="M9950 3456 c0 -2 7 -9 15 -16 9 -7 15 -8 15 -2 0 5 -7 12 -15 16 -8
3 -15 4 -15 2z"/>
<path d="M4762 3410 c0 -19 2 -27 5 -17 2 9 2 25 0 35 -3 9 -5 1 -5 -18z"/>
<path d="M8884 3417 c0 -13 8 -23 16 -24 8 -1 31 -4 50 -7 23 -4 30 -3 21 3
-8 5 -19 7 -25 5 -6 -2 -23 7 -37 20 l-27 25 2 -22z"/>
<path d="M8910 3436 c0 -2 8 -10 18 -17 15 -13 16 -12 3 4 -13 16 -21 21 -21
13z"/>
<path d="M590 3426 c0 -2 7 -9 15 -16 13 -11 14 -10 9 4 -5 14 -24 23 -24 12z"/>
<path d="M3570 3415 c-7 -9 -11 -18 -8 -20 3 -3 11 1 18 10 7 9 11 18 8 20 -3
3 -11 -1 -18 -10z"/>
<path d="M580 3395 c0 -8 4 -15 10 -15 5 0 7 7 4 15 -4 8 -8 15 -10 15 -2 0
-4 -7 -4 -15z"/>
<path d="M12691 3394 c0 -11 3 -14 6 -6 3 7 2 16 -1 19 -3 4 -6 -2 -5 -13z"/>
<path d="M1922 3348 c0 -24 3 -36 6 -28 3 8 8 17 12 20 3 3 1 15 -6 28 -11 22
-12 20 -12 -20z"/>
<path d="M12670 3207 l5 -182 3 174 c1 96 -1 178 -5 182 -5 5 -6 -74 -3 -174z"/>
<path d="M4743 3340 c0 -25 2 -35 4 -22 2 12 2 32 0 45 -2 12 -4 2 -4 -23z"/>
<path d="M10017 3348 c30 -32 39 -34 46 -14 4 10 0 12 -14 9 -17 -5 -23 3 -21
27 0 3 -8 6 -19 6 -17 0 -16 -3 8 -28z"/>
<path d="M12648 3210 c2 -96 5 -179 7 -185 7 -20 3 261 -4 310 -4 28 -6 -29
-3 -125z"/>
<path d="M527 3331 c-24 -42 -21 -52 4 -13 12 18 20 35 17 37 -2 2 -12 -9 -21
-24z"/>
<path d="M9013 3339 c15 -11 24 -26 21 -31 -4 -7 -2 -8 4 -4 6 4 24 -7 39 -24
15 -17 42 -40 60 -51 18 -11 33 -26 33 -34 0 -7 9 -15 19 -18 29 -7 16 14 -32
50 -23 17 -66 55 -96 82 -29 28 -58 51 -65 51 -6 0 1 -10 17 -21z"/>
<path d="M4772 3325 c0 -16 2 -22 5 -12 2 9 2 23 0 30 -3 6 -5 -1 -5 -18z"/>
<path d="M1947 3315 c-4 -8 -2 -17 3 -20 6 -4 10 3 10 14 0 25 -6 27 -13 6z"/>
<path d="M540 3260 c0 -22 3 -40 8 -40 4 0 7 18 7 40 0 22 -3 40 -7 40 -5 0
-8 -18 -8 -40z"/>
<path d="M1970 3280 c0 -5 5 -10 11 -10 5 0 7 5 4 10 -3 6 -8 10 -11 10 -2 0
-4 -4 -4 -10z"/>
<path d="M10105 3280 c-2 -4 7 -7 20 -7 33 0 40 12 9 13 -13 1 -26 -2 -29 -6z"/>
<path d="M465 3244 c-24 -32 -25 -35 -6 -25 11 7 21 18 21 26 0 7 6 15 13 18
6 2 9 7 6 11 -3 4 -19 -10 -34 -30z"/>
<path d="M512 3255 c-14 -31 -15 -35 -3 -35 8 0 23 51 17 58 -2 1 -8 -9 -14
-23z"/>
<path d="M1920 3259 c0 -5 5 -7 10 -4 6 3 10 8 10 11 0 2 -4 4 -10 4 -5 0 -10
-5 -10 -11z"/>
<path d="M9050 3264 c0 -7 27 -34 34 -34 4 0 1 9 -6 20 -12 19 -28 27 -28 14z"/>
<path d="M1994 3246 c-3 -8 -1 -23 5 -33 9 -15 10 -12 5 12 l-7 30 22 -25 22
-25 -17 28 c-19 31 -22 33 -30 13z"/>
<path d="M10125 3250 c3 -5 11 -10 16 -10 6 0 7 5 4 10 -3 6 -11 10 -16 10 -6
0 -7 -4 -4 -10z"/>
<path d="M462 3190 c0 -14 2 -19 5 -12 2 6 2 18 0 25 -3 6 -5 1 -5 -13z"/>
<path d="M9130 3196 c0 -8 -3 -23 -7 -33 -6 -16 -5 -16 10 -4 19 15 22 37 7
46 -5 3 -10 0 -10 -9z"/>
<path d="M10190 3195 c7 -8 17 -15 22 -15 5 0 3 7 -6 15 -8 8 -18 15 -22 15
-3 0 -1 -7 6 -15z"/>
<path d="M422 3180 c-18 -29 -15 -48 4 -22 8 12 14 27 12 32 -2 6 -9 1 -16
-10z"/>
<path d="M2040 3191 c0 -5 5 -13 10 -16 6 -3 10 -2 10 4 0 5 -4 13 -10 16 -5
3 -10 2 -10 -4z"/>
<path d="M2007 3175 c-10 -23 -9 -27 4 -19 6 3 15 0 20 -7 4 -7 10 -11 13 -9
2 3 -3 16 -13 29 -16 21 -19 21 -24 6z"/>
<path d="M4712 3160 c0 -19 2 -27 5 -17 2 9 2 25 0 35 -3 9 -5 1 -5 -18z"/>
<path d="M2070 3161 c0 -6 4 -13 10 -16 6 -3 7 1 4 9 -7 18 -14 21 -14 7z"/>
<path d="M9170 3160 c0 -5 5 -10 11 -10 5 0 7 5 4 10 -3 6 -8 10 -11 10 -2 0
-4 -4 -4 -10z"/>
<path d="M10225 3160 c3 -5 8 -10 11 -10 2 0 4 5 4 10 0 6 -5 10 -11 10 -5 0
-7 -4 -4 -10z"/>
<path d="M435 3150 c-3 -5 -1 -10 4 -10 6 0 11 5 11 10 0 6 -2 10 -4 10 -3 0
-8 -4 -11 -10z"/>
<path d="M4676 3124 c-4 -15 -3 -30 1 -35 4 -4 9 8 10 27 2 41 -2 44 -11 8z"/>
<path d="M1938 3133 c12 -2 30 -2 40 0 9 3 -1 5 -23 4 -22 0 -30 -2 -17 -4z"/>
<path d="M9148 3115 c5 -29 8 -31 15 -11 3 8 0 19 -7 25 -10 9 -12 6 -8 -14z"/>
<path d="M10260 3129 c0 -5 5 -7 10 -4 6 3 10 8 10 11 0 2 -4 4 -10 4 -5 0
-10 -5 -10 -11z"/>
<path d="M12693 3090 c0 -30 2 -43 4 -27 2 15 2 39 0 55 -2 15 -4 2 -4 -28z"/>
<path d="M370 3108 c-8 -13 -18 -28 -22 -34 -5 -7 0 -11 14 -10 18 1 23 8 24
34 1 17 1 32 0 32 -1 0 -8 -10 -16 -22z m10 -28 c0 -5 -4 -10 -10 -10 -5 0
-10 5 -10 10 0 6 5 10 10 10 6 0 10 -4 10 -10z"/>
<path d="M1703 3123 c15 -2 39 -2 55 0 15 2 2 4 -28 4 -30 0 -43 -2 -27 -4z"/>
<path d="M1817 3119 c8 -8 16 -8 30 0 16 9 14 10 -11 11 -22 0 -27 -3 -19 -11z"/>
<path d="M2086 3114 c-9 -23 -7 -31 4 -14 7 12 12 12 22 2 9 -9 9 -12 0 -12
-17 0 -15 -17 2 -23 10 -4 13 -1 9 9 -3 8 1 14 8 14 8 0 4 8 -9 20 -26 24 -28
24 -36 4z"/>
<path d="M9250 3114 c0 -10 3 -14 6 -11 4 3 15 2 26 -4 32 -17 30 -4 -2 15
-28 16 -30 16 -30 0z"/>
<path d="M10286 3122 c-2 -4 4 -8 14 -8 10 0 16 4 14 8 -3 4 -9 8 -14 8 -5 0
-11 -4 -14 -8z"/>
<path d="M1638 3113 c7 -3 16 -2 19 1 4 3 -2 6 -13 5 -11 0 -14 -3 -6 -6z"/>
<path d="M1870 3110 c0 -13 11 -13 30 0 12 8 11 10 -7 10 -13 0 -23 -4 -23
-10z"/>
<path d="M1980 3110 c-13 -8 -12 -10 3 -10 9 0 17 5 17 10 0 12 -1 12 -20 0z"/>
<path d="M4701 3115 c1 -19 18 -51 18 -35 0 8 -4 22 -9 30 -5 8 -9 11 -9 5z"/>
<path d="M1585 3101 c-11 -5 -28 -18 -39 -30 -10 -11 -23 -18 -27 -15 -5 3 -9
1 -9 -5 0 -22 19 -19 45 9 16 17 34 30 41 30 7 0 16 5 19 10 7 12 -2 12 -30 1z"/>
<path d="M1910 3100 c-13 -8 -12 -10 3 -10 9 0 17 5 17 10 0 12 -1 12 -20 0z"/>
<path d="M9212 3090 c-8 -13 -8 -20 -2 -20 6 0 13 7 17 15 9 24 -1 27 -15 5z"/>
<path d="M1955 3080 c11 -5 27 -9 35 -9 9 0 8 4 -5 9 -11 5 -27 9 -35 9 -9 0
-8 -4 5 -9z"/>
<path d="M9120 3083 c0 -4 5 -15 10 -23 8 -13 10 -13 10 2 0 9 -4 20 -10 23
-5 3 -10 3 -10 -2z"/>
<path d="M9270 3070 c0 -6 7 -10 15 -10 8 0 15 2 15 4 0 2 -7 6 -15 10 -8 3
-15 1 -15 -4z"/>
<path d="M9317 3069 c7 -7 15 -10 18 -7 3 3 -2 9 -12 12 -14 6 -15 5 -6 -5z"/>
<path d="M2161 3053 c23 -30 71 -73 80 -73 4 0 -12 20 -38 45 -46 46 -67 59
-42 28z"/>
<path d="M2026 3051 c-18 -7 -18 -8 -2 -14 25 -10 56 -9 56 2 0 5 -10 7 -22 4
-19 -4 -20 -3 -8 6 17 12 4 13 -24 2z"/>
<path d="M10378 3026 c21 -17 39 -33 42 -36 3 -3 18 -16 33 -30 23 -20 27 -21
21 -6 -6 15 -4 17 7 11 12 -8 12 -6 0 9 -8 9 -20 15 -27 12 -8 -3 -17 0 -21 7
-5 7 -17 17 -28 23 -11 7 -20 18 -19 25 1 8 -9 15 -22 15 -20 2 -18 -2 14 -30z"/>
<path d="M10450 3051 c0 -5 7 -11 15 -15 8 -3 15 -1 15 3 0 5 -7 11 -15 15 -8
3 -15 1 -15 -3z"/>
<path d="M330 3034 l-25 -14 29 2 c16 2 31 9 34 16 5 16 -7 15 -38 -4z"/>
<path d="M1491 3040 c0 -8 4 -22 9 -30 12 -18 12 -2 0 25 -6 13 -9 15 -9 5z"/>
<path d="M2100 3040 c0 -5 7 -10 15 -10 8 0 15 5 15 10 0 6 -7 10 -15 10 -8 0
-15 -4 -15 -10z"/>
<path d="M9186 3034 c-4 -9 -4 -19 -1 -22 2 -3 7 3 11 12 4 9 4 19 1 22 -2 3
-7 -3 -11 -12z"/>
<path d="M2151 3024 c0 -11 3 -14 6 -6 3 7 2 16 -1 19 -3 4 -6 -2 -5 -13z"/>
<path d="M10416 3030 c12 -5 25 -13 29 -19 3 -6 12 -11 18 -11 7 0 1 9 -13 20
-14 11 -32 19 -40 19 -9 0 -6 -4 6 -9z"/>
<path d="M1450 3009 c0 -11 5 -17 10 -14 6 4 11 -11 11 -37 2 -30 3 -35 6 -15
2 15 9 27 15 27 6 0 4 8 -5 18 -10 10 -17 24 -17 30 0 7 -4 12 -10 12 -5 0
-10 -9 -10 -21z"/>
<path d="M4623 3013 c-4 -10 -20 -36 -35 -58 -16 -22 -36 -51 -45 -65 -9 -14
-26 -35 -37 -47 -11 -13 -16 -23 -12 -23 5 0 17 12 29 26 19 25 21 26 29 8 5
-12 6 -8 2 14 -4 24 -2 34 11 38 9 4 25 24 36 46 11 21 23 37 27 34 4 -2 7 7
7 20 0 29 -3 30 -12 7z"/>
<path d="M2077 3010 c13 -15 63 -22 63 -10 0 5 -8 8 -17 8 -10 0 -27 3 -38 7
-16 6 -18 5 -8 -5z"/>
<path d="M295 3000 c-3 -5 -2 -16 2 -24 6 -11 11 -11 19 -2 8 8 7 15 -2 24 -8
7 -15 8 -19 2z"/>
<path d="M2167 2995 c-4 -8 -1 -17 5 -21 7 -4 8 -3 4 4 -4 7 -2 12 3 12 6 0
11 5 11 10 0 15 -17 12 -23 -5z"/>
<path d="M9400 2995 c7 -9 15 -13 17 -11 7 7 -7 26 -19 26 -6 0 -6 -6 2 -15z"/>
<path d="M355 2990 c-3 -5 1 -10 9 -10 9 0 16 5 16 10 0 6 -4 10 -9 10 -6 0
-13 -4 -16 -10z"/>
<path d="M2141 2961 c13 -11 26 -17 28 -15 5 5 -30 33 -43 34 -4 0 2 -9 15
-19z"/>
<path d="M9182 2968 c-14 -14 -16 -28 -3 -28 9 0 24 30 18 36 -2 2 -9 -2 -15
-8z"/>
<path d="M10552 2955 c0 -16 2 -22 5 -12 2 9 2 23 0 30 -3 6 -5 -1 -5 -18z"/>
<path d="M12663 2953 c-18 -38 -8 -41 12 -4 8 17 12 31 8 31 -5 0 -14 -12 -20
-27z"/>
<path d="M2240 2959 c0 -5 5 -7 10 -4 6 3 10 8 10 11 0 2 -4 4 -10 4 -5 0 -10
-5 -10 -11z"/>
<path d="M9440 2960 c0 -5 5 -10 11 -10 5 0 7 5 4 10 -3 6 -8 10 -11 10 -2 0
-4 -4 -4 -10z"/>
<path d="M10510 2960 c0 -5 5 -10 10 -10 6 0 10 5 10 10 0 6 -4 10 -10 10 -5
0 -10 -4 -10 -10z"/>
<path d="M2202 2944 c-15 -7 -20 -14 -13 -19 6 -3 18 1 27 10 21 21 15 25 -14
9z"/>
<path d="M4611 2934 c-17 -37 -8 -39 13 -4 9 17 13 30 8 30 -5 0 -14 -12 -21
-26z"/>
<path d="M310 2941 c0 -7 -4 -10 -8 -7 -4 2 -13 -4 -20 -15 -16 -25 -7 -24 20
1 12 11 18 23 15 27 -4 3 -7 1 -7 -6z"/>
<path d="M2275 2940 c3 -5 8 -10 11 -10 2 0 4 5 4 10 0 6 -5 10 -11 10 -5 0
-7 -4 -4 -10z"/>
<path d="M9070 2940 c0 -5 5 -10 10 -10 6 0 10 5 10 10 0 6 -4 10 -10 10 -5 0
-10 -4 -10 -10z"/>
<path d="M9141 2934 c0 -11 3 -14 6 -6 3 7 2 16 -1 19 -3 4 -6 -2 -5 -13z"/>
<path d="M9449 2918 c-11 -22 -10 -22 6 -6 17 16 20 16 49 -3 l31 -21 -30 26
c-37 32 -41 32 -56 4z"/>
<path d="M10500 2925 c7 -9 15 -13 17 -11 7 7 -7 26 -19 26 -6 0 -6 -6 2 -15z"/>
<path d="M215 2882 c-16 -26 -34 -50 -40 -54 -7 -5 -6 -8 1 -8 14 0 26 14 53
64 31 55 21 54 -14 -2z"/>
<path d="M2242 2916 c10 -7 16 -15 13 -17 -2 -3 5 -5 15 -5 19 0 19 1 0 18
-11 10 -25 18 -32 18 -9 -1 -7 -5 4 -14z"/>
<path d="M2313 2912 c0 -10 9 -18 19 -18 16 0 16 2 1 18 -9 10 -17 18 -19 18
-1 0 -2 -8 -1 -18z"/>
<path d="M2210 2899 c0 -5 5 -7 10 -4 6 3 10 8 10 11 0 2 -4 4 -10 4 -5 0 -10
-5 -10 -11z"/>
<path d="M9065 2889 c-4 -6 -5 -12 -2 -15 2 -3 7 2 10 11 7 17 1 20 -8 4z"/>
<path d="M10571 2859 c91 -87 140 -123 95 -69 -16 19 -31 33 -33 32 -3 -2 -17
7 -31 20 -54 47 -76 60 -31 17z"/>
<path d="M12563 2874 c0 -16 2 -22 7 -15 5 10 9 9 13 -3 4 -9 11 -16 16 -16
17 0 20 28 5 47 -14 17 -14 16 -4 -4 13 -29 -3 -30 -21 -2 -14 20 -14 20 -16
-7z"/>
<path d="M12627 2883 c3 -7 6 -13 8 -13 2 0 5 6 8 13 3 8 -1 14 -8 14 -7 0
-11 -6 -8 -14z"/>
<path d="M2230 2882 c0 -5 9 -17 20 -27 11 -10 20 -15 20 -12 0 4 -9 16 -20
27 -11 11 -20 16 -20 12z"/>
<path d="M2351 2866 c-10 -12 -8 -13 8 -9 12 3 18 9 15 14 -7 12 -10 11 -23
-5z"/>
<path d="M9545 2864 c11 -8 31 -24 45 -36 59 -49 63 -50 11 -1 -31 29 -60 53
-66 53 -5 -1 -1 -7 10 -16z"/>
<path d="M10610 2860 c0 -5 5 -10 11 -10 5 0 7 5 4 10 -3 6 -8 10 -11 10 -2 0
-4 -4 -4 -10z"/>
<path d="M2397 2841 c3 -12 11 -17 19 -14 18 7 18 10 -5 22 -16 9 -18 8 -14
-8z"/>
<path d="M219 2833 c-13 -16 -12 -17 4 -4 9 7 17 15 17 17 0 8 -8 3 -21 -13z"/>
<path d="M1460 2843 c0 -6 -3 -20 -6 -30 -5 -15 -4 -16 6 -3 10 12 11 11 6
-10 -3 -14 -6 -29 -7 -35 0 -5 -4 -1 -9 10 -7 16 -8 14 -7 -12 3 -44 10 -41
29 11 14 38 14 47 3 63 -8 10 -15 13 -15 6z"/>
<path d="M2316 2837 c3 -10 9 -15 12 -12 3 3 0 11 -7 18 -10 9 -11 8 -5 -6z"/>
<path d="M9107 2837 c-3 -8 -2 -20 3 -26 5 -9 8 -4 8 13 0 29 -3 32 -11 13z"/>
<path d="M9530 2841 c0 -5 7 -12 16 -15 24 -9 27 -7 10 9 -17 17 -26 19 -26 6z"/>
<path d="M2365 2830 c-3 -5 1 -10 10 -10 9 0 13 5 10 10 -3 6 -8 10 -10 10 -2
0 -7 -4 -10 -10z"/>
<path d="M12564 2822 c-7 -11 -22 -16 -47 -14 -27 2 -37 -1 -37 -12 0 -8 -6
-17 -12 -20 -7 -4 2 -4 20 -1 36 5 109 50 95 58 -5 3 -14 -2 -19 -11z m-47
-28 c-3 -3 -12 -4 -19 -1 -8 3 -5 6 6 6 11 1 17 -2 13 -5z"/>
<path d="M2302 2799 c6 -16 12 -29 13 -27 6 6 -8 58 -16 58 -4 0 -3 -14 3 -31z"/>
<path d="M4445 2773 l-28 -38 34 32 c18 18 30 35 27 38 -3 3 -18 -11 -33 -32z"/>
<path d="M9085 2782 c-4 -18 -4 -36 -1 -39 3 -4 6 2 6 13 1 14 5 11 15 -11 17
-39 18 -31 1 25 l-13 45 -8 -33z"/>
<path d="M113 2737 c-36 -54 -76 -132 -44 -87 5 8 18 15 27 15 10 0 18 6 20
13 1 7 0 8 -3 2 -6 -13 -23 -13 -23 0 0 5 7 18 15 27 8 10 22 27 31 38 15 20
16 20 9 0 -3 -11 -3 -16 2 -12 6 7 15 67 9 67 0 0 -20 -28 -43 -63z"/>
<path d="M2480 2785 c0 -9 5 -13 10 -10 6 4 18 1 26 -6 8 -6 17 -9 20 -6 3 3
-8 13 -25 22 -28 14 -31 14 -31 0z"/>
<path d="M12410 2790 c8 -5 22 -9 30 -9 10 0 8 3 -5 9 -27 12 -43 12 -25 0z"/>
<path d="M4462 2754 c-7 -8 -8 -14 -3 -14 10 0 25 19 20 25 -2 1 -10 -3 -17
-11z"/>
<path d="M9630 2760 c0 -5 5 -10 11 -10 5 0 7 5 4 10 -3 6 -8 10 -11 10 -2 0
-4 -4 -4 -10z"/>
<path d="M9676 2755 c4 -8 11 -15 16 -15 6 0 5 6 -2 15 -7 8 -14 15 -16 15 -2
0 -1 -7 2 -15z"/>
<path d="M12338 2763 c12 -2 32 -2 45 0 12 2 2 4 -23 4 -25 0 -35 -2 -22 -4z"/>
<path d="M12425 2760 c-3 -5 1 -10 9 -10 9 0 16 5 16 10 0 6 -4 10 -9 10 -6 0
-13 -4 -16 -10z"/>
<path d="M1478 2750 c-5 -16 13 -60 25 -60 4 0 7 -7 7 -15 0 -8 5 -15 10 -15
14 0 12 9 -14 59 -14 26 -25 39 -28 31z"/>
<path d="M2557 2749 c7 -7 15 -10 18 -7 3 3 -2 9 -12 12 -14 6 -15 5 -6 -5z"/>
<path d="M2365 2730 c3 -5 8 -10 11 -10 2 0 4 5 4 10 0 6 -5 10 -11 10 -5 0
-7 -4 -4 -10z"/>
<path d="M8971 2724 c0 -11 3 -14 6 -6 3 7 2 16 -1 19 -3 4 -6 -2 -5 -13z"/>
<path d="M2340 2725 c0 -5 5 -17 10 -25 5 -8 10 -10 10 -5 0 6 -5 17 -10 25
-5 8 -10 11 -10 5z"/>
<path d="M2381 2699 c-6 -18 -11 -37 -10 -43 0 -6 7 7 15 28 8 22 12 41 10 43
-2 2 -9 -10 -15 -28z"/>
<path d="M2600 2720 c0 -5 7 -10 16 -10 8 0 12 5 9 10 -3 6 -10 10 -16 10 -5
0 -9 -4 -9 -10z"/>
<path d="M9070 2713 c0 -13 5 -23 10 -23 13 0 13 11 0 30 -8 12 -10 11 -10 -7z"/>
<path d="M9743 2698 c11 -10 15 -23 11 -30 -4 -7 -3 -10 1 -5 5 4 21 -5 37
-20 15 -15 28 -22 28 -17 0 10 -52 60 -80 79 -9 6 -8 2 3 -7z"/>
<path d="M2607 2700 c-20 -4 -40 -10 -44 -13 -8 -9 4 -8 51 3 30 6 45 5 60 -6
11 -8 30 -14 41 -13 14 0 8 6 -20 19 -22 10 -42 18 -45 18 -3 0 -22 -4 -43 -8z"/>
<path d="M4385 2700 c4 -6 1 -17 -5 -25 -10 -12 -9 -15 4 -15 10 0 16 9 16 25
0 14 -5 25 -11 25 -5 0 -7 -5 -4 -10z"/>
<path d="M1451 2684 c0 -11 3 -14 6 -6 3 7 2 16 -1 19 -3 4 -6 -2 -5 -13z"/>
<path d="M4345 2680 c-10 -11 -13 -20 -7 -20 6 0 16 9 22 20 6 11 9 20 7 20
-2 0 -12 -9 -22 -20z"/>
<path d="M8982 2680 c0 -14 2 -19 5 -12 2 6 2 18 0 25 -3 6 -5 1 -5 -13z"/>
<path d="M151 2674 c0 -11 3 -14 6 -6 3 7 2 16 -1 19 -3 4 -6 -2 -5 -13z"/>
<path d="M9101 2678 c-1 -10 -5 -18 -11 -18 -5 0 -7 -7 -3 -17 5 -14 8 -12 15
7 5 13 7 28 4 34 -2 6 -5 3 -5 -6z"/>
<path d="M9710 2680 c0 -5 5 -10 10 -10 6 0 10 5 10 10 0 6 -4 10 -10 10 -5 0
-10 -4 -10 -10z"/>
<path d="M1480 2670 c0 -5 5 -10 10 -10 6 0 10 5 10 10 0 6 -4 10 -10 10 -5 0
-10 -4 -10 -10z"/>
<path d="M9063 2645 c0 -22 2 -30 4 -17 2 12 2 30 0 40 -3 9 -5 -1 -4 -23z"/>
<path d="M2588 2663 c6 -2 18 -2 25 0 6 3 1 5 -13 5 -14 0 -19 -2 -12 -5z"/>
<path d="M1530 2635 c0 -8 4 -15 10 -15 5 0 7 7 4 15 -4 8 -8 15 -10 15 -2 0
-4 -7 -4 -15z"/>
<path d="M2815 2640 c11 -5 27 -9 35 -9 9 0 8 4 -5 9 -11 5 -27 9 -35 9 -9 0
-8 -4 5 -9z"/>
<path d="M9760 2640 c0 -5 5 -10 11 -10 5 0 7 5 4 10 -3 6 -8 10 -11 10 -2 0
-4 -4 -4 -10z"/>
<path d="M4284 2629 c-3 -6 -20 -19 -38 -30 -17 -10 -26 -19 -21 -19 6 0 25 9
43 20 18 11 37 18 42 15 6 -3 7 1 4 9 -7 19 -20 21 -30 5z"/>
<path d="M8991 2624 c0 -11 3 -14 6 -6 3 7 2 16 -1 19 -3 4 -6 -2 -5 -13z"/>
<path d="M2387 2609 c4 -13 8 -18 11 -10 2 7 -1 18 -6 23 -8 8 -9 4 -5 -13z"/>
<path d="M3293 2614 c-4 -11 -14 -14 -37 -9 -29 5 -30 5 -6 -6 38 -17 70 -21
70 -9 0 6 4 9 9 6 5 -4 7 3 4 14 -6 24 -31 27 -40 4z m27 -4 c0 -5 -4 -10 -10
-10 -5 0 -10 5 -10 10 0 6 5 10 10 10 6 0 10 -4 10 -10z"/>
<path d="M31 2592 c-7 -17 -11 -45 -8 -63 l4 -34 1 38 c1 21 7 47 13 59 6 11
9 22 6 24 -2 3 -10 -8 -16 -24z"/>
<path d="M2833 2613 c9 -14 56 -23 63 -12 3 5 -1 9 -8 9 -7 0 -24 3 -37 7 -16
4 -22 2 -18 -4z"/>
<path d="M9102 2600 c0 -14 2 -19 5 -12 2 6 2 18 0 25 -3 6 -5 1 -5 -13z"/>
<path d="M9790 2604 c0 -13 -3 -14 -15 -4 -9 8 -15 9 -15 2 0 -19 22 -25 37
-9 10 10 11 17 4 21 -6 4 -11 0 -11 -10z"/>
<path d="M9832 2603 c2 -9 12 -17 23 -19 10 -2 27 -13 37 -26 10 -13 18 -18
18 -12 0 17 -47 57 -59 50 -7 -4 -8 -1 -5 8 3 9 1 16 -6 16 -6 0 -10 -7 -8
-17z"/>
<path d="M59 2595 c-1 -11 -1 -38 -1 -60 1 -36 0 -37 -8 -15 -9 22 -9 21 -5
-9 3 -18 6 -84 7 -145 1 -105 1 -102 9 59 5 94 7 175 5 180 -3 6 -5 1 -7 -10z"/>
<path d="M2953 2599 c14 -8 22 -8 30 0 8 8 3 11 -18 11 -26 -1 -28 -2 -12 -11z"/>
<path d="M3173 2593 c9 -2 25 -2 35 0 9 3 1 5 -18 5 -19 0 -27 -2 -17 -5z"/>
<path d="M1525 2580 c-3 -6 1 -7 9 -4 18 7 21 14 7 14 -6 0 -13 -4 -16 -10z"/>
<path d="M2828 2583 c7 -3 16 -2 19 1 4 3 -2 6 -13 5 -11 0 -14 -3 -6 -6z"/>
<path d="M2908 2583 c6 -2 18 -2 25 0 6 3 1 5 -13 5 -14 0 -19 -2 -12 -5z"/>
<path d="M3013 2583 c15 -2 37 -2 50 0 12 2 0 4 -28 4 -27 0 -38 -2 -22 -4z"/>
<path d="M8969 2552 c5 -34 6 -35 9 -8 2 16 0 32 -5 37 -5 5 -7 -7 -4 -29z"/>
<path d="M1570 2572 c0 -5 9 -19 20 -32 16 -18 17 -25 8 -32 -9 -5 -10 -8 -1
-8 24 0 24 21 -1 51 -14 17 -26 26 -26 21z"/>
<path d="M9846 2556 c3 -9 11 -16 16 -16 13 0 5 23 -10 28 -7 2 -10 -2 -6 -12z"/>
<path d="M3363 2527 c1 -15 5 -27 10 -27 10 0 9 22 -2 39 -7 10 -9 7 -8 -12z"/>
<path d="M9924 2537 c5 -15 2 -17 -14 -12 -11 4 -20 2 -20 -4 0 -6 16 -10 35
-9 20 1 31 5 24 8 -6 4 -16 14 -21 21 -8 11 -8 10 -4 -4z"/>
<path d="M4114 2519 c-21 -10 -33 -18 -26 -19 7 0 27 7 44 16 28 14 30 14 25
1 -4 -11 -1 -14 9 -10 7 3 14 9 14 13 0 17 -28 17 -66 -1z"/>
<path d="M1556 2515 c4 -8 8 -15 10 -15 2 0 4 7 4 15 0 8 -4 15 -10 15 -5 0
-7 -7 -4 -15z"/>
<path d="M1632 2484 c-1 -15 2 -22 8 -19 12 7 13 32 2 39 -4 2 -9 -7 -10 -20z"/>
<path d="M8962 2490 c0 -14 2 -19 5 -12 2 6 2 18 0 25 -3 6 -5 1 -5 -13z"/>
<path d="M1603 2463 c1 -18 6 -28 10 -24 4 4 3 18 -2 32 -9 23 -9 22 -8 -8z"/>
<path d="M8976 2462 c-4 -18 -5 -36 -2 -39 11 -12 17 5 14 39 l-3 33 -9 -33z"/>
<path d="M9970 2480 c0 -5 5 -10 11 -10 5 0 7 5 4 10 -3 6 -8 10 -11 10 -2 0
-4 -4 -4 -10z"/>
<path d="M3361 2464 c0 -11 3 -14 6 -6 3 7 2 16 -1 19 -3 4 -6 -2 -5 -13z"/>
<path d="M3430 2471 c0 -3 4 -11 8 -17 8 -13 62 -28 62 -17 -1 9 -70 43 -70
34z"/>
<path d="M4020 2470 c-9 -6 -10 -10 -3 -10 6 0 15 5 18 10 8 12 4 12 -15 0z"/>
<path d="M3986 2462 c-3 -6 0 -13 6 -15 10 -4 10 -6 1 -6 -7 -1 -13 -5 -13
-11 0 -15 17 -12 23 3 7 18 -8 43 -17 29z"/>
<path d="M1670 2452 c0 -4 10 -13 23 -21 22 -14 22 -14 3 8 -20 22 -26 25 -26
13z"/>
<path d="M10002 2448 c-16 -16 -15 -25 2 -25 8 0 12 6 8 15 -4 11 2 10 24 -4
15 -11 25 -13 21 -7 -14 23 -43 33 -55 21z"/>
<path d="M1640 2446 c0 -2 7 -9 15 -16 13 -11 14 -10 9 4 -5 14 -24 23 -24 12z"/>
<path d="M3416 2434 c-8 -21 -8 -39 1 -30 8 7 15 46 9 46 -2 0 -7 -7 -10 -16z"/>
<path d="M3925 2440 l-20 -9 20 0 c11 0 27 4 35 9 13 9 13 10 0 9 -8 0 -24 -4
-35 -9z"/>
<path d="M4048 2438 c5 -5 16 -8 23 -6 8 3 3 7 -10 11 -17 4 -21 3 -13 -5z"/>
<path d="M3518 2423 c6 -2 18 -2 25 0 6 3 1 5 -13 5 -14 0 -19 -2 -12 -5z"/>
<path d="M3286 2405 c-9 -26 -7 -32 5 -12 6 10 9 21 6 23 -2 3 -7 -2 -11 -11z"/>
<path d="M1710 2401 c0 -5 9 -11 20 -14 13 -3 18 -11 14 -20 -3 -8 2 -17 10
-20 11 -4 13 -1 9 10 -6 15 -4 15 17 0 14 -9 29 -17 35 -17 5 0 -14 16 -42 35
-55 37 -63 40 -63 26z"/>
<path d="M3775 2400 c-18 -8 -18 -9 5 -9 14 0 32 4 40 9 12 8 12 10 -5 9 -11
0 -29 -4 -40 -9z"/>
<path d="M3380 2383 c0 -13 5 -23 10 -23 13 0 13 11 0 30 -8 12 -10 11 -10 -7z"/>
<path d="M3621 2379 c-1 -23 4 -27 40 -33 52 -8 64 0 14 10 -24 4 -40 14 -45
28 -8 20 -9 19 -9 -5z"/>
<path d="M3676 2384 c-5 -14 -4 -15 9 -4 17 14 19 20 6 20 -5 0 -12 -7 -15
-16z"/>
<path d="M10089 2387 c14 -18 51 -42 51 -33 0 3 -15 15 -32 27 -24 17 -29 18
-19 6z"/>
<path d="M3541 2368 c-1 -16 -5 -28 -11 -28 -16 0 -11 -17 6 -24 24 -9 26 -4
15 40 -7 33 -9 35 -10 12z"/>
<path d="M3572 2365 c0 -16 2 -22 5 -12 2 9 2 23 0 30 -3 6 -5 -1 -5 -18z"/>
<path d="M3412 2360 c-10 -16 -9 -18 8 -17 22 1 24 6 12 24 -6 9 -11 7 -20 -7z"/>
<path d="M3760 2370 c0 -6 7 -10 15 -10 8 0 15 2 15 4 0 2 -7 6 -15 10 -8 3
-15 1 -15 -4z"/>
<path d="M1700 2360 c0 -6 7 -10 15 -10 8 0 15 2 15 4 0 2 -7 6 -15 10 -8 3
-15 1 -15 -4z"/>
<path d="M2372 2350 c-8 -13 -8 -20 -2 -20 6 0 13 7 17 15 9 24 -1 27 -15 5z"/>
<path d="M3291 2335 c1 -19 18 -51 18 -35 0 8 -4 22 -9 30 -5 8 -9 11 -9 5z"/>
<path d="M3343 2300 c-5 -22 -7 -37 -2 -35 9 6 23 64 17 70 -2 3 -9 -13 -15
-35z"/>
<path d="M3632 2233 c1 -110 5 -97 10 35 2 39 0 72 -4 72 -5 0 -7 -48 -6 -107z"/>
<path d="M8962 2320 c0 -14 2 -19 5 -12 2 6 2 18 0 25 -3 6 -5 1 -5 -13z"/>
<path d="M2357 2275 c9 -19 19 -33 21 -30 6 6 -21 65 -30 65 -4 0 0 -16 9 -35z"/>
<path d="M3652 2285 c0 -16 2 -22 5 -12 2 9 2 23 0 30 -3 6 -5 -1 -5 -18z"/>
<path d="M1884 2291 c4 -6 15 -11 24 -12 14 0 14 -2 -3 -8 -13 -5 -4 -8 29 -8
46 0 46 1 18 12 -53 23 -75 28 -68 16z"/>
<path d="M10170 2280 c6 -11 16 -20 22 -20 6 0 3 9 -7 20 -10 11 -20 20 -22
20 -2 0 1 -9 7 -20z"/>
<path d="M10194 2291 c4 -6 16 -16 28 -22 15 -8 18 -8 14 0 -4 6 -16 16 -28
22 -15 8 -18 8 -14 0z"/>
<path d="M2291 2271 c-10 -7 -7 -9 12 -8 14 1 23 5 20 10 -6 9 -15 9 -32 -2z"/>
<path d="M70 2220 c-2 -41 -3 -42 -9 -15 l-7 30 -5 -32 c-3 -18 -2 -30 3 -27
4 3 8 -7 9 -23 1 -24 2 -22 10 12 6 22 8 54 6 70 -3 23 -4 20 -7 -15z"/>
<path d="M2215 2240 c-19 -8 -19 -9 3 -9 12 -1 22 4 22 9 0 6 -1 10 -2 9 -2 0
-12 -4 -23 -9z"/>
<path d="M10250 2245 c0 -8 15 -21 65 -57 l30 -21 -25 24 c-49 45 -70 62 -70
54z"/>
<path d="M2145 2230 c-3 -5 -1 -10 4 -10 6 0 11 5 11 10 0 6 -2 10 -4 10 -3 0
-8 -4 -11 -10z"/>
<path d="M3332 2210 c0 -19 2 -27 5 -17 2 9 2 25 0 35 -3 9 -5 1 -5 -18z"/>
<path d="M2013 2223 c9 -2 23 -2 30 0 6 3 -1 5 -18 5 -16 0 -22 -2 -12 -5z"/>
<path d="M2331 2210 c0 -14 4 -32 9 -40 9 -13 10 -13 9 0 -1 8 -5 26 -9 40
l-8 25 -1 -25z"/>
<path d="M2080 2209 c0 -8 -12 -9 -37 -5 -28 5 -34 4 -23 -3 19 -13 80 -14 80
-2 0 6 -4 13 -10 16 -5 3 -10 1 -10 -6z"/>
<path d="M8971 2208 c0 -9 -4 -25 -7 -35 -5 -17 -5 -17 6 0 6 10 9 25 7 35 -4
15 -5 15 -6 0z"/>
<path d="M2138 2203 c7 -3 16 -2 19 1 4 3 -2 6 -13 5 -11 0 -14 -3 -6 -6z"/>
<path d="M2218 2203 c7 -3 16 -2 19 1 4 3 -2 6 -13 5 -11 0 -14 -3 -6 -6z"/>
<path d="M8991 2194 c0 -11 3 -14 6 -6 3 7 2 16 -1 19 -3 4 -6 -2 -5 -13z"/>
<path d="M10250 2201 c0 -5 7 -12 16 -15 24 -9 27 -7 10 9 -17 17 -26 19 -26
6z"/>
<path d="M2362 2160 c0 -14 2 -19 5 -12 2 6 2 18 0 25 -3 6 -5 1 -5 -13z"/>
<path d="M3531 2164 c0 -11 3 -14 6 -6 3 7 2 16 -1 19 -3 4 -6 -2 -5 -13z"/>
<path d="M3650 2152 c0 -18 5 -32 10 -32 6 0 8 11 4 28 -10 39 -14 40 -14 4z"/>
<path d="M9062 2150 c0 -19 2 -27 5 -17 2 9 2 25 0 35 -3 9 -5 1 -5 -18z"/>
<path d="M9092 2155 c0 -16 2 -22 5 -12 2 9 2 23 0 30 -3 6 -5 -1 -5 -18z"/>
<path d="M8980 2149 c-10 -7 -11 -12 -3 -15 7 -3 10 -25 8 -62 l-4 -57 9 60
c12 74 10 88 -10 74z"/>
<path d="M10340 2150 c0 -5 5 -10 10 -10 7 0 7 -6 1 -18 -9 -17 -6 -18 22 -17
37 3 54 -4 37 -15 -7 -4 -9 -13 -6 -19 11 -18 23 -13 21 9 -1 23 -35 63 -35
42 0 -7 -5 -12 -11 -12 -6 0 -9 6 -6 14 5 14 -10 36 -25 36 -4 0 -8 -4 -8 -10z"/>
<path d="M2333 2110 c0 -25 2 -35 4 -22 2 12 2 32 0 45 -2 12 -4 2 -4 -23z"/>
<path d="M3572 2120 c0 -14 2 -19 5 -12 2 6 2 18 0 25 -3 6 -5 1 -5 -13z"/>
<path d="M3322 2095 c0 -16 2 -22 5 -12 2 9 2 23 0 30 -3 6 -5 -1 -5 -18z"/>
<path d="M3527 2088 c3 -18 12 -46 19 -63 l13 -30 -6 30 c-4 17 -7 45 -7 63 0
19 -5 32 -13 32 -9 0 -11 -10 -6 -32z"/>
<path d="M9075 2107 c-8 -8 -7 -24 1 -52 l12 -40 -2 52 c0 29 -1 53 -1 53 0
-1 -5 -6 -10 -13z"/>
<path d="M9010 2067 c0 -26 4 -47 9 -47 8 0 3 79 -5 89 -2 2 -4 -17 -4 -42z"/>
<path d="M40 2094 c0 -6 7 -19 15 -30 8 -10 14 -14 14 -9 0 6 -6 19 -14 29 -8
11 -15 15 -15 10z"/>
<path d="M2423 2060 c0 -25 2 -35 4 -22 2 12 2 32 0 45 -2 12 -4 2 -4 -23z"/>
<path d="M3623 2060 c0 -25 2 -35 4 -22 2 12 2 32 0 45 -2 12 -4 2 -4 -23z"/>
<path d="M3647 2065 c3 -22 7 -42 9 -44 8 -9 2 45 -6 64 -7 14 -8 8 -3 -20z"/>
<path d="M3567 2077 c-4 -10 -7 -26 -7 -35 1 -15 2 -15 11 1 6 10 9 25 7 35
-3 16 -4 15 -11 -1z"/>
<path d="M10440 2071 c0 -5 9 -13 20 -16 26 -8 26 -29 0 -22 -11 3 -23 1 -26
-4 -3 -5 6 -9 20 -9 14 0 26 -6 26 -12 0 -9 4 -8 10 2 9 13 12 12 25 -4 8 -11
17 -17 20 -14 5 5 -79 88 -89 88 -3 0 -6 -4 -6 -9z"/>
<path d="M3328 2037 c-3 -19 -2 -25 4 -19 6 6 8 18 6 28 -3 14 -5 12 -10 -9z"/>
<path d="M2332 2025 c0 -16 2 -22 5 -12 2 9 2 23 0 30 -3 6 -5 -1 -5 -18z"/>
<path d="M9100 2036 c0 -8 4 -17 9 -20 5 -4 7 3 4 14 -6 23 -13 26 -13 6z"/>
<path d="M70 2031 c0 -8 55 -60 78 -74 24 -16 11 1 -33 41 -25 22 -45 37 -45
33z"/>
<path d="M3292 1980 c0 -19 2 -27 5 -17 2 9 2 25 0 35 -3 9 -5 1 -5 -18z"/>
<path d="M2366 1989 c-12 -39 -15 -69 -7 -69 4 0 11 17 14 37 6 37 1 58 -7 32z"/>
<path d="M3341 1984 c0 -11 3 -14 6 -6 3 7 2 16 -1 19 -3 4 -6 -2 -5 -13z"/>
<path d="M3531 1990 c0 -8 4 -22 9 -30 12 -18 12 -2 0 25 -6 13 -9 15 -9 5z"/>
<path d="M3586 1965 c-3 -9 -6 -22 -5 -28 0 -7 5 -1 10 12 5 13 8 26 5 28 -2
2 -6 -3 -10 -12z"/>
<path d="M9040 1975 c0 -5 5 -17 10 -25 5 -8 10 -10 10 -5 0 6 -5 17 -10 25
-5 8 -10 11 -10 5z"/>
<path d="M10550 1969 c0 -6 -9 -8 -22 -4 -22 6 -22 6 -4 -9 11 -9 27 -17 35
-18 9 0 21 -2 27 -2 6 -1 19 -7 28 -15 29 -24 17 -3 -16 28 -35 32 -48 38 -48
20z m24 -15 c3 -8 2 -12 -4 -9 -6 3 -10 10 -10 16 0 14 7 11 14 -7z"/>
<path d="M10480 1961 c0 -10 19 -25 25 -20 1 2 -3 10 -11 17 -8 7 -14 8 -14 3z"/>
<path d="M11576 1963 c5 -5 12 -12 16 -18 4 -6 8 -2 8 8 0 9 -7 17 -17 17 -9
0 -12 -3 -7 -7z"/>
<path d="M11950 1960 c0 -5 5 -10 11 -10 5 0 7 5 4 10 -3 6 -8 10 -11 10 -2 0
-4 -4 -4 -10z"/>
<path d="M2332 1939 c-12 -20 -23 -20 -1005 -17 -546 2 -1001 7 -1012 11 -14
6 -16 6 -6 -1 10 -7 7 -12 -15 -21 -24 -9 -25 -10 -4 -6 14 3 475 5 1025 5
770 -1 1001 -4 1008 -13 6 -8 7 -6 3 6 -3 9 -1 17 3 17 9 0 24 30 18 36 -1 2
-8 -6 -15 -17z"/>
<path d="M11923 1947 c0 -7 9 -14 19 -14 16 -2 16 0 4 13 -18 17 -23 18 -23 1z"/>
<path d="M3347 1944 c-3 -3 -3 -12 0 -20 7 -20 166 -20 182 0 8 10 9 16 1 21
-6 4 -9 1 -8 -7 2 -10 -17 -13 -82 -13 -63 0 -84 3 -82 13 2 13 -1 15 -11 6z"/>
<path d="M190 1930 c8 -5 20 -10 25 -10 6 0 3 5 -5 10 -8 5 -19 10 -25 10 -5
0 -3 -5 5 -10z"/>
<path d="M2388 1916 c-3 -14 -1 -26 3 -26 5 0 9 5 9 10 0 7 153 10 438 11 240
0 445 3 454 7 10 4 -186 6 -434 4 -328 -2 -453 0 -458 9 -4 6 -9 0 -12 -15z"/>
<path d="M9150 1930 c-35 -7 -35 -7 -5 -9 17 0 37 4 45 9 17 11 11 11 -40 0z"/>
<path d="M9060 1910 c6 -11 12 -20 14 -20 2 0 2 9 -1 20 -3 11 -9 20 -15 20
-5 0 -4 -9 2 -20z"/>
<path d="M238 1913 c7 -3 16 -2 19 1 4 3 -2 6 -13 5 -11 0 -14 -3 -6 -6z"/>
<path d="M3597 1913 c-4 -3 -7 -11 -7 -17 0 -7 4 -6 8 1 7 10 567 13 2728 16
l2719 2 -2721 3 c-1496 1 -2724 -1 -2727 -5z"/>
<path d="M9190 1905 c-9 -10 -9 -15 -1 -15 6 0 11 4 11 10 0 6 239 11 683 13
l682 2 -681 3 c-596 2 -683 0 -694 -13z"/>
<path d="M10580 1905 c7 -8 17 -15 22 -15 5 0 3 7 -6 15 -8 8 -18 15 -22 15
-3 0 -1 -7 6 -15z"/>
<path d="M10630 1896 c0 -2 7 -7 16 -10 8 -3 12 -2 9 4 -6 10 -25 14 -25 6z"/>
<path d="M3810 1112 c-5 -2 -10 -11 -10 -20 0 -14 2 -14 13 -1 10 12 151 13
1024 9 804 -4 1011 -8 1005 -17 -6 -10 -223 -13 -1008 -16 l-999 -2 1000 -2
c1045 -2 1046 -2 1030 38 -4 12 -168 14 -1025 14 -561 0 -1024 -1 -1030 -3z"/>
<path d="M6854 1111 c-2 -2 -4 -11 -4 -20 0 -12 2 -13 8 -3 7 10 221 13 1025
15 1002 2 1017 2 1017 -18 0 -15 3 -16 12 -7 8 8 9 15 2 22 -10 10 -2050 21
-2060 11z"/>
<path d="M10713 1113 c-842 -3 -839 -3 -801 -41 9 -9 202 -12 808 -12 437 0
800 4 807 8 6 4 -354 7 -800 7 -639 0 -811 3 -814 13 -4 9 161 12 801 12 526
0 807 3 811 10 3 6 5 9 3 8 -2 -2 -369 -4 -815 -5z"/>
<path d="M756 1102 c-2 -4 459 -6 1026 -4 832 2 1029 0 1026 -10 -4 -10 -207
-14 -1009 -18 l-1004 -5 1001 -3 c767 -1 1003 1 1012 10 39 39 52 38 -1018 38
-566 0 -1031 -4 -1034 -8z"/>
<path d="M11549 1087 c6 -8 8 -17 4 -21 -4 -4 0 -4 10 0 14 5 15 9 6 20 -6 8
-16 14 -21 14 -7 0 -6 -5 1 -13z"/>
<path d="M765 1070 c4 -6 11 -8 16 -5 14 9 11 15 -7 15 -8 0 -12 -5 -9 -10z"/>
<path d="M7373 1063 c280 -2 734 -2 1010 0 276 1 48 2 -508 2 -555 0 -781 -1
-502 -2z"/>
</g>
</svg>
